<svg width="1518" height="789" viewBox="0 0 1518 789" fill="none" xmlns="http://www.w3.org/2000/svg">
<g clip-path="url(#clip0_1_137)">
<path d="M-241.403 278.054C-241.559 278.015 -241.724 278.038 -241.863 278.12C-242.002 278.201 -242.103 278.334 -242.144 278.489C-242.185 278.645 -242.162 278.81 -242.081 278.95C-242 279.089 -241.867 279.19 -241.712 279.232C-228.594 282.819 -214.771 285.845 -201.228 288.199C-146.587 297.616 -90.3198 298.136 -35.497 289.287C164.213 265.469 303.291 77.2646 326.162 -113.571C328.332 -126.879 330.225 -140.589 331.828 -154.712C331.846 -154.872 331.8 -155.033 331.7 -155.159C331.6 -155.286 331.454 -155.367 331.294 -155.386C331.133 -155.405 330.972 -155.359 330.846 -155.259C330.719 -155.159 330.637 -155.013 330.618 -154.853C328.928 -140.759 326.951 -127.083 324.702 -113.814C300.502 76.6565 162.172 262.349 -36.0177 286.081C-90.4692 294.868 -146.345 294.8 -200.908 286.277C-214.433 284.145 -228.256 281.368 -241.403 278.054Z" fill="#CCDBFF"/>
<path d="M-261.991 273.38C-262.147 273.341 -262.312 273.364 -262.451 273.446C-262.59 273.527 -262.691 273.66 -262.731 273.816C-262.772 273.971 -262.75 274.136 -262.669 274.276C-262.588 274.415 -262.455 274.516 -262.3 274.558C-249.182 278.145 -235.359 281.171 -221.815 283.525C-167.175 292.942 -110.907 293.462 -56.0846 284.613C143.625 260.795 282.704 72.5906 305.574 -118.245C307.744 -131.553 309.638 -145.263 311.24 -159.386C311.258 -159.546 311.213 -159.707 311.113 -159.833C311.012 -159.96 310.866 -160.041 310.706 -160.06C310.546 -160.079 310.385 -160.033 310.258 -159.933C310.132 -159.833 310.05 -159.687 310.031 -159.527C308.341 -145.433 306.364 -131.757 304.114 -118.488C279.914 71.9826 141.584 257.675 -56.6054 281.407C-111.057 290.194 -166.933 290.126 -221.496 281.603C-235.021 279.471 -248.844 276.694 -261.991 273.38Z" fill="#CCDBFF"/>
<path d="M-285.746 267.987C-285.902 267.948 -286.067 267.971 -286.206 268.053C-286.345 268.134 -286.446 268.267 -286.487 268.423C-286.528 268.578 -286.505 268.743 -286.424 268.883C-286.343 269.022 -286.21 269.123 -286.055 269.165C-272.937 272.752 -259.114 275.778 -245.571 278.132C-190.93 287.549 -134.663 288.069 -79.84 279.22C119.87 255.402 258.948 67.1977 281.819 -123.638C283.989 -136.946 285.882 -150.655 287.485 -164.778C287.503 -164.939 287.457 -165.1 287.357 -165.226C287.257 -165.353 287.111 -165.434 286.951 -165.453C286.79 -165.472 286.629 -165.426 286.503 -165.326C286.376 -165.226 286.294 -165.08 286.275 -164.92C284.585 -150.826 282.608 -137.15 280.359 -123.881C256.159 66.5896 117.829 252.282 -80.3607 276.014C-134.812 284.801 -190.688 284.733 -245.252 276.21C-258.776 274.078 -272.599 271.302 -285.746 267.987Z" fill="#CCDBFF"/>
<path d="M-301.155 247.837C-301.311 247.797 -301.476 247.82 -301.615 247.902C-301.754 247.983 -301.855 248.116 -301.895 248.272C-301.936 248.427 -301.914 248.593 -301.833 248.732C-301.752 248.871 -301.619 248.972 -301.464 249.015C-288.346 252.601 -274.523 255.627 -260.979 257.981C-206.339 267.398 -150.072 267.918 -95.2487 259.069C104.461 235.251 243.54 47.0468 266.41 -143.789C268.58 -157.096 270.474 -170.806 272.076 -184.929C272.094 -185.09 272.049 -185.251 271.948 -185.377C271.848 -185.504 271.702 -185.585 271.542 -185.604C271.382 -185.623 271.221 -185.577 271.094 -185.477C270.967 -185.377 270.886 -185.231 270.867 -185.071C269.177 -170.977 267.2 -157.301 264.95 -144.032C240.75 46.4387 102.42 232.131 -95.7694 255.863C-150.221 264.65 -206.097 264.582 -260.66 256.059C-274.185 253.927 -288.008 251.151 -301.155 247.837Z" fill="#CCDBFF"/>
<path d="M1091.31 838.103C1091.18 838.071 1091.04 838.09 1090.92 838.158C1090.81 838.226 1090.72 838.337 1090.69 838.467C1090.66 838.597 1090.67 838.736 1090.74 838.852C1090.81 838.968 1090.92 839.053 1091.05 839.088C1102.02 842.086 1113.57 844.616 1124.89 846.584C1170.57 854.456 1217.61 854.892 1263.44 847.494C1430.39 827.582 1546.66 670.248 1565.78 510.713C1567.59 499.588 1569.18 488.127 1570.52 476.32C1570.53 476.187 1570.49 476.052 1570.41 475.946C1570.33 475.84 1570.2 475.772 1570.07 475.757C1569.94 475.741 1569.8 475.779 1569.7 475.863C1569.59 475.946 1569.52 476.069 1569.51 476.202C1568.09 487.984 1566.44 499.417 1564.56 510.51C1544.33 669.739 1428.69 824.974 1263.01 844.813C1217.49 852.159 1170.78 852.103 1125.16 844.977C1113.85 843.195 1102.3 840.874 1091.31 838.103Z" fill="#CCDBFF"/>
<path d="M1074.1 834.196C1073.97 834.163 1073.83 834.183 1073.71 834.251C1073.6 834.319 1073.51 834.43 1073.48 834.56C1073.44 834.69 1073.46 834.828 1073.53 834.944C1073.6 835.061 1073.71 835.145 1073.84 835.181C1084.81 838.179 1096.36 840.709 1107.68 842.677C1153.36 850.549 1200.4 850.984 1246.23 843.586C1413.18 823.675 1529.45 666.34 1548.57 506.806C1550.38 495.681 1551.97 484.22 1553.31 472.413C1553.32 472.279 1553.28 472.144 1553.2 472.039C1553.12 471.933 1552.99 471.865 1552.86 471.849C1552.73 471.834 1552.59 471.872 1552.49 471.955C1552.38 472.039 1552.31 472.161 1552.3 472.295C1550.88 484.077 1549.23 495.51 1547.35 506.603C1527.12 665.832 1411.48 821.067 1245.8 840.906C1200.28 848.252 1153.56 848.195 1107.95 841.07C1096.64 839.288 1085.09 836.967 1074.1 834.196Z" fill="#CCDBFF"/>
<path d="M1054.24 829.688C1054.11 829.655 1053.97 829.674 1053.85 829.742C1053.74 829.81 1053.65 829.922 1053.62 830.052C1053.59 830.181 1053.6 830.32 1053.67 830.436C1053.74 830.552 1053.85 830.637 1053.98 830.673C1064.95 833.671 1076.5 836.201 1087.82 838.169C1133.5 846.041 1180.54 846.476 1226.37 839.078C1393.32 819.166 1509.59 661.832 1528.71 502.297C1530.52 491.173 1532.11 479.711 1533.45 467.905C1533.46 467.771 1533.42 467.636 1533.34 467.53C1533.26 467.425 1533.13 467.356 1533 467.341C1532.87 467.325 1532.73 467.363 1532.63 467.447C1532.52 467.531 1532.45 467.653 1532.44 467.787C1531.02 479.569 1529.37 491.002 1527.49 502.094C1507.26 661.323 1391.62 816.559 1225.94 836.398C1180.42 843.743 1133.71 843.687 1088.09 836.561C1076.78 834.78 1065.23 832.458 1054.24 829.688Z" fill="#CCDBFF"/>
<path d="M1041.36 812.842C1041.23 812.809 1041.09 812.829 1040.97 812.897C1040.86 812.965 1040.77 813.076 1040.74 813.206C1040.7 813.336 1040.72 813.474 1040.79 813.59C1040.86 813.707 1040.97 813.791 1041.1 813.827C1052.07 816.825 1063.62 819.355 1074.94 821.323C1120.62 829.195 1167.66 829.63 1213.49 822.232C1380.44 802.321 1496.71 644.986 1515.83 485.452C1517.64 474.327 1519.23 462.866 1520.57 451.059C1520.58 450.925 1520.54 450.79 1520.46 450.685C1520.38 450.579 1520.25 450.511 1520.12 450.495C1519.99 450.48 1519.85 450.518 1519.75 450.601C1519.64 450.685 1519.57 450.807 1519.55 450.941C1518.14 462.723 1516.49 474.156 1514.61 485.249C1494.38 644.478 1378.74 799.713 1213.06 819.552C1167.53 826.898 1120.82 826.841 1075.21 819.716C1063.9 817.934 1052.35 815.613 1041.36 812.842Z" fill="#CCDBFF"/>
</g>
<defs>
<clipPath id="clip0_1_137">
<rect width="1518" height="789" fill="white"/>
</clipPath>
</defs>
</svg>
