<svg width="1518" height="610" viewBox="0 0 1518 610" fill="none" xmlns="http://www.w3.org/2000/svg">
<g clip-path="url(#clip0_77_524)">
<path d="M-186.124 360.622C-186.283 360.586 -186.448 360.612 -186.584 360.696C-186.719 360.78 -186.813 360.914 -186.846 361.069C-186.878 361.225 -186.847 361.389 -186.757 361.525C-186.668 361.662 -186.529 361.76 -186.371 361.799C-186.371 361.799 -186.371 361.799 -186.371 361.799C-168.468 366.173 -149.681 369.863 -131.274 372.748C-57.1525 384.259 18.3817 385.113 92.1033 375.173C356.626 350.199 565.331 129.254 600.767 -126.22C604.065 -144.011 606.848 -161.892 609.226 -180.586C609.246 -180.744 609.201 -180.906 609.102 -181.036C609.002 -181.166 608.856 -181.253 608.695 -181.279C608.534 -181.305 608.371 -181.266 608.243 -181.173C608.114 -181.079 608.031 -180.937 608.01 -180.779C608.01 -180.779 608.01 -180.779 608.01 -180.779C605.545 -162.122 602.679 -144.281 599.303 -126.536C562.534 128.384 354.816 346.982 91.5495 371.976C18.1525 381.87 -57.0197 381.463 -131.042 370.834C-149.425 368.169 -168.204 364.727 -186.124 360.622Z" fill="#CCDBFF"/>
<path d="M-175.022 375.626C-175.181 375.589 -175.346 375.615 -175.482 375.699C-175.617 375.783 -175.711 375.917 -175.744 376.072C-175.776 376.228 -175.745 376.392 -175.656 376.528C-175.567 376.665 -175.427 376.763 -175.269 376.802C-175.269 376.802 -175.269 376.802 -175.269 376.802C-157.366 381.176 -138.579 384.866 -120.172 387.751C-46.0507 399.262 29.4835 400.117 103.205 390.176C367.728 365.202 576.432 144.257 611.869 -111.217C615.167 -129.008 617.95 -146.889 620.328 -165.582C620.348 -165.741 620.303 -165.903 620.204 -166.033C620.104 -166.163 619.958 -166.25 619.797 -166.276C619.636 -166.301 619.473 -166.263 619.345 -166.169C619.216 -166.076 619.132 -165.934 619.112 -165.776C619.112 -165.776 619.112 -165.776 619.112 -165.776C616.647 -147.119 613.78 -129.278 610.404 -111.533C573.635 143.387 365.918 361.985 102.651 386.979C29.2543 396.873 -45.9179 396.466 -119.941 385.837C-138.323 383.172 -157.102 379.73 -175.022 375.626Z" fill="#CCDBFF"/>
<path d="M-202.777 349.37C-202.936 349.334 -203.101 349.36 -203.236 349.444C-203.372 349.527 -203.466 349.662 -203.499 349.817C-203.531 349.972 -203.499 350.136 -203.41 350.273C-203.321 350.41 -203.182 350.508 -203.024 350.547C-203.024 350.547 -203.024 350.547 -203.024 350.547C-185.121 354.921 -166.333 358.611 -147.927 361.495C-73.8053 373.007 1.72888 373.861 75.4504 363.921C339.974 338.947 548.678 118.002 584.114 -137.473C587.412 -155.263 590.195 -173.144 592.573 -191.838C592.593 -191.996 592.549 -192.158 592.449 -192.288C592.35 -192.418 592.203 -192.506 592.042 -192.531C591.881 -192.557 591.719 -192.519 591.59 -192.425C591.462 -192.331 591.378 -192.19 591.357 -192.031C591.357 -192.031 591.357 -192.031 591.357 -192.031C588.892 -173.374 586.026 -155.533 582.65 -137.788C545.881 117.132 338.163 335.729 74.8967 360.724C1.49967 370.618 -73.6726 370.21 -147.695 359.582C-166.078 356.917 -184.856 353.474 -202.777 349.37Z" fill="#CCDBFF"/>
<path d="M-220.818 340.618C-220.976 340.582 -221.142 340.608 -221.277 340.692C-221.412 340.775 -221.506 340.91 -221.539 341.065C-221.572 341.221 -221.54 341.385 -221.451 341.521C-221.362 341.658 -221.223 341.756 -221.064 341.795C-221.064 341.795 -221.064 341.795 -221.064 341.795C-203.161 346.169 -184.374 349.859 -165.967 352.744C-91.8458 364.255 -16.3117 365.109 57.4099 355.169C321.933 330.195 530.637 109.25 566.074 -146.225C569.371 -164.015 572.155 -181.896 574.532 -200.59C574.552 -200.748 574.508 -200.91 574.409 -201.04C574.309 -201.17 574.163 -201.257 574.002 -201.283C573.841 -201.309 573.678 -201.27 573.55 -201.177C573.421 -201.083 573.337 -200.941 573.316 -200.783C573.316 -200.783 573.316 -200.783 573.316 -200.783C570.851 -182.126 567.985 -164.285 564.609 -146.54C527.84 108.38 320.123 326.978 56.8562 351.972C-16.5409 361.866 -91.7131 361.458 -165.736 350.83C-184.118 348.165 -202.897 344.723 -220.818 340.618Z" fill="#CCDBFF"/>
<rect x="66" y="70" width="364" height="469" fill="#F9C300"/>
</g>
<defs>
<clipPath id="clip0_77_524">
<rect width="1518" height="610" fill="white"/>
</clipPath>
</defs>
</svg>
