<svg width="1518" height="610" viewBox="0 0 1518 610" fill="none" xmlns="http://www.w3.org/2000/svg">
<g clip-path="url(#clip0_82_742)">
<path d="M1287.15 -19.7143C1287.31 -19.6797 1287.48 -19.708 1287.61 -19.7936C1287.75 -19.8791 1287.84 -20.0147 1287.87 -20.1707C1287.9 -20.3267 1287.87 -20.4904 1287.77 -20.6259C1287.68 -20.7615 1287.54 -20.8577 1287.38 -20.8939C1287.38 -20.8939 1287.38 -20.8939 1287.38 -20.8939C1263.33 -26.3804 1238.1 -30.9379 1213.4 -34.4289C1113.95 -48.3467 1012.85 -48.0417 914.357 -33.3975C560.784 4.85958 285.475 304.139 242.44 646.816C238.334 670.693 234.918 694.682 232.059 719.754C232.041 719.912 232.088 720.074 232.189 720.202C232.29 720.331 232.438 720.416 232.599 720.44C232.761 720.463 232.923 720.423 233.05 720.327C233.177 720.232 233.259 720.089 233.278 719.931C233.278 719.931 233.278 719.931 233.278 719.931C236.224 694.894 239.724 670.944 243.909 647.112C288.284 304.971 562.638 8.05217 914.954 -30.2081C1013.12 -44.802 1113.86 -45.5485 1213.2 -32.5122C1237.87 -29.2409 1263.08 -24.9303 1287.15 -19.7143Z" fill="#CCDBFF"/>
<path d="M1272.01 -39.6038C1272.17 -39.5693 1272.34 -39.5976 1272.47 -39.6831C1272.61 -39.7686 1272.7 -39.9042 1272.73 -40.0602C1272.76 -40.2162 1272.73 -40.3799 1272.63 -40.5155C1272.54 -40.651 1272.4 -40.7472 1272.24 -40.7834C1272.24 -40.7834 1272.24 -40.7834 1272.24 -40.7834C1248.19 -46.2699 1222.96 -50.8274 1198.26 -54.3184C1098.81 -68.2362 997.707 -67.9312 899.218 -53.287C545.644 -15.0299 270.335 284.25 227.3 626.926C223.194 650.803 219.778 674.793 216.919 699.864C216.901 700.023 216.948 700.184 217.049 700.313C217.151 700.441 217.298 700.527 217.46 700.55C217.621 700.574 217.783 700.533 217.91 700.438C218.037 700.342 218.119 700.2 218.138 700.041C218.138 700.041 218.138 700.041 218.138 700.041C221.085 675.005 224.584 651.054 228.769 627.222C273.144 285.082 547.498 -11.8374 899.815 -50.0976C997.981 -64.6915 1098.72 -65.4381 1198.06 -52.4017C1222.73 -49.1305 1247.94 -44.8199 1272.01 -39.6038Z" fill="#CCDBFF"/>
<path d="M1309.66 -4.94853C1309.82 -4.914 1309.98 -4.9423 1310.12 -5.02781C1310.25 -5.11332 1310.34 -5.24893 1310.37 -5.40492C1310.41 -5.56091 1310.37 -5.72463 1310.28 -5.86018C1310.19 -5.99574 1310.05 -6.09191 1309.89 -6.12815C1309.89 -6.12815 1309.89 -6.12815 1309.89 -6.12815C1285.83 -11.6146 1260.61 -16.1721 1235.91 -19.6632C1136.46 -33.581 1035.35 -33.2759 936.863 -18.6318C583.29 19.6253 307.981 318.905 264.946 661.582C260.84 685.458 257.424 709.448 254.565 734.519C254.547 734.678 254.594 734.839 254.695 734.968C254.796 735.097 254.944 735.182 255.105 735.206C255.266 735.229 255.429 735.189 255.556 735.093C255.683 734.998 255.765 734.855 255.783 734.697C255.783 734.697 255.783 734.697 255.783 734.697C258.73 709.66 262.23 685.71 266.414 661.877C310.789 319.737 585.143 22.8179 937.46 -15.4423C1035.63 -30.0362 1136.36 -30.7828 1235.7 -17.7464C1260.38 -14.4752 1285.59 -10.1646 1309.66 -4.94853Z" fill="#CCDBFF"/>
<path d="M1333.98 6.44344C1334.14 6.47797 1334.3 6.44967 1334.44 6.36416C1334.57 6.27865 1334.66 6.14304 1334.69 5.98705C1334.72 5.83106 1334.69 5.66733 1334.6 5.53179C1334.51 5.39623 1334.37 5.30006 1334.21 5.26382C1334.21 5.26382 1334.21 5.26382 1334.21 5.26382C1310.15 -0.222675 1284.93 -4.78016 1260.23 -8.2712C1160.78 -22.189 1059.67 -21.884 961.181 -7.23979C607.608 31.0173 332.299 330.297 289.264 672.974C285.158 696.85 281.742 720.84 278.883 745.911C278.865 746.07 278.912 746.231 279.013 746.36C279.114 746.489 279.262 746.574 279.423 746.598C279.585 746.621 279.747 746.581 279.874 746.485C280.001 746.39 280.083 746.247 280.102 746.089C280.102 746.089 280.102 746.089 280.102 746.089C283.049 721.052 286.548 697.102 290.733 673.269C335.108 331.129 609.462 34.2099 961.779 -4.05036C1059.94 -18.6442 1160.68 -19.3908 1260.02 -6.35448C1284.69 -3.08323 1309.91 1.22738 1333.98 6.44344Z" fill="#CCDBFF"/>
</g>
<defs>
<clipPath id="clip0_82_742">
<rect width="1518" height="610" fill="white"/>
</clipPath>
</defs>
</svg>
