<svg width="1534" height="580" viewBox="0 0 1534 580" fill="none" xmlns="http://www.w3.org/2000/svg">
<g clip-path="url(#clip0_87_884)">
<path d="M100.791 651.289C101.059 651.327 101.326 651.366 101.594 651.404C104.745 644.452 107.433 637.112 109.598 630.002C118.29 601.145 120.489 572.13 117.721 543.917C108.886 444.342 31.3642 360.538 -75.7852 312.607C-83.3499 309.124 -91.0096 305.798 -99.0257 302.518C-99.1886 302.708 -99.3515 302.897 -99.5144 303.087C-91.5447 306.404 -83.9325 309.766 -76.4161 313.282C30.0591 361.702 106.657 445.25 115.465 544.29C118.217 572.357 116.338 601.164 108.274 629.927C106.265 637.014 103.752 644.338 100.791 651.289Z" fill="#CCDBFF"/>
<path d="M111.225 627.561C111.484 627.626 111.743 627.69 112.002 627.754C115.586 621.009 118.815 613.769 121.503 606.805C132.405 578.324 137.308 549.174 137.455 520.26C139.112 418.468 73.0155 324.768 -27.8313 267.211C-34.9385 263.031 -42.1217 259.032 -49.681 255.047C-49.8531 255.228 -50.0251 255.41 -50.1972 255.591C-42.6866 259.611 -35.553 263.642 -28.4962 267.85C71.6393 325.851 136.837 419.155 135.216 520.408C135.067 549.173 130.496 578.148 120.214 606.599C117.681 613.556 114.623 620.798 111.225 627.561Z" fill="#CCDBFF"/>
<path d="M104.882 632.879C105.148 632.92 105.414 632.961 105.68 633.002C108.982 625.981 111.885 618.494 114.24 611.332C123.782 582.038 127.044 552.584 125.374 523.765C120.693 422.199 45.8885 334.301 -63.0142 285.467C-70.697 281.902 -78.4456 278.524 -86.5871 275.193C-86.75 275.383 -86.9129 275.572 -87.0758 275.762C-78.9814 279.131 -71.2809 282.544 -63.6475 286.141C44.5615 335.462 118.43 423.048 123.115 524.089C124.775 552.764 121.838 582.023 112.921 611.238C110.722 618.381 107.994 625.856 104.882 632.879Z" fill="#CCDBFF"/>
<path d="M89.021 608.07C89.2967 608.054 89.5724 608.039 89.8481 608.024C92.0572 600.547 93.6294 592.904 94.679 585.442C98.7777 555.546 95.4915 526.782 87.0096 500.075C57.6366 405.554 -40.4917 341.793 -160.061 314.453C-168.519 312.448 -177.109 310.586 -186.024 308.83C-186.163 309.037 -186.303 309.245 -186.443 309.452C-177.57 311.252 -169.022 313.156 -160.607 315.201C-41.6284 343.118 55.572 406.868 84.8032 500.891C93.2401 527.463 96.811 555.959 93.3308 585.634C92.4354 593.042 91.0377 600.633 89.021 608.07Z" fill="#CCDBFF"/>
<path d="M1229.47 -33.7788C1229.22 -33.661 1228.97 -33.5431 1228.73 -33.4253C1230.55 -26.5565 1233.35 -20.2514 1236.65 -14.2495C1250.12 9.6994 1270.86 28.4126 1293.93 43.6942C1376.25 96.5611 1485.89 110.289 1596.32 107.993C1604.13 107.806 1612.09 107.528 1620.2 107.154C1620.26 106.911 1620.31 106.668 1620.37 106.425C1612.28 106.745 1604.34 106.97 1596.56 107.106C1486.4 108.701 1377.26 94.5943 1295.38 41.9973C1272.43 26.794 1251.64 8.4391 1237.77 -14.9998C1234.37 -20.8753 1231.45 -27.0461 1229.47 -33.7788Z" fill="#CCDBFF"/>
<path d="M1234.01 -17.3979C1233.75 -17.299 1233.49 -17.2 1233.23 -17.1011C1234.32 -10.2207 1236.37 -3.79932 1238.95 2.38197C1249.5 27.0529 1267.64 47.1758 1288.55 64.0243C1363.35 122.649 1470.25 143.47 1579.49 147.456C1587.21 147.718 1595.09 147.894 1603.14 147.979C1603.22 147.742 1603.29 147.504 1603.37 147.267C1595.35 147.129 1587.49 146.903 1579.79 146.592C1470.9 141.927 1364.55 120.765 1290.17 62.4514C1269.38 45.6923 1251.14 25.9235 1240.14 1.7245C1237.45 -4.33995 1235.27 -10.6388 1234.01 -17.3979Z" fill="#CCDBFF"/>
<path d="M1236.67 -22.2026C1236.42 -22.0887 1236.17 -21.9748 1235.92 -21.8609C1237.61 -14.8857 1240.22 -8.43039 1243.35 -2.24852C1256.13 22.4098 1276.2 41.9949 1298.81 58.0786C1379.58 113.932 1489.83 129.183 1600.99 126.964C1608.85 126.787 1616.87 126.512 1625.03 126.135C1625.09 125.892 1625.15 125.649 1625.21 125.406C1617.06 125.728 1609.07 125.95 1601.23 126.077C1490.34 127.594 1380.63 111.969 1300.3 56.4072C1277.81 40.4073 1257.68 21.1839 1244.49 -2.97525C1241.25 -9.03342 1238.51 -15.3581 1236.67 -22.2026Z" fill="#CCDBFF"/>
<path d="M1265.97 -12.6627C1265.75 -12.5126 1265.52 -12.3624 1265.3 -12.2123C1268.7 -5.49351 1273.01 0.540964 1277.74 6.15001C1296.99 28.5318 1322.46 44.5132 1349.48 56.7972C1445.6 98.891 1560.06 98.6049 1672.15 82.7268C1680.07 81.5775 1688.12 80.3191 1696.3 78.9476C1696.31 78.6977 1696.32 78.4478 1696.33 78.198C1688.15 79.5131 1680.11 80.7167 1672.2 81.8131C1560.23 96.9574 1446.18 96.8062 1350.55 54.9156C1323.66 42.6917 1298.22 27.0709 1278.69 5.25182C1273.89 -0.217599 1269.48 -6.10103 1265.97 -12.6627Z" fill="#CCDBFF"/>
</g>
<defs>
<clipPath id="clip0_87_884">
<rect width="1534" height="580" fill="white"/>
</clipPath>
</defs>
</svg>
