<svg width="1518" height="610" viewBox="0 0 1518 610" fill="none" xmlns="http://www.w3.org/2000/svg">
<g clip-path="url(#clip0_108_224)">
<path d="M1078.43 -196.478C1078.43 -196.639 1078.36 -196.79 1078.24 -196.899C1078.12 -197.008 1077.96 -197.065 1077.8 -197.057C1077.64 -197.05 1077.49 -196.979 1077.38 -196.859C1077.27 -196.74 1077.22 -196.583 1077.22 -196.421C1077.22 -196.421 1077.22 -196.421 1077.22 -196.421C1077.73 -180.735 1079.08 -164.465 1081.05 -148.721C1089.09 -85.2614 1107.13 -23.0362 1134.63 34.6688C1225.09 246.792 1473.94 345.229 1692.4 308.54C1707.82 306.639 1723.51 304.298 1739.6 301.481C1739.75 301.454 1739.9 301.364 1739.99 301.232C1740.08 301.1 1740.12 300.936 1740.09 300.776C1740.07 300.617 1739.98 300.475 1739.85 300.381C1739.72 300.288 1739.55 300.251 1739.4 300.277C1739.4 300.277 1739.4 300.277 1739.4 300.277C1723.31 303.001 1707.64 305.252 1692.23 307.067C1473.78 342.361 1227.54 244 1137.55 33.2477C1110.21 -24.1308 1091.85 -85.8601 1082.98 -148.987C1080.8 -164.648 1079.22 -180.844 1078.43 -196.478Z" fill="#CCDBFF"/>
<path d="M1088.77 -209.262C1088.77 -209.423 1088.7 -209.575 1088.58 -209.683C1088.46 -209.792 1088.3 -209.849 1088.14 -209.842C1087.98 -209.834 1087.83 -209.763 1087.72 -209.644C1087.61 -209.525 1087.56 -209.367 1087.56 -209.206C1087.56 -209.206 1087.56 -209.206 1087.56 -209.206C1088.07 -193.519 1089.42 -177.249 1091.39 -161.506C1099.43 -98.0458 1117.47 -35.8206 1144.97 21.8844C1235.43 234.008 1484.28 332.445 1702.74 295.756C1718.16 293.854 1733.85 291.514 1749.94 288.697C1750.09 288.669 1750.24 288.58 1750.33 288.447C1750.42 288.315 1750.46 288.151 1750.43 287.992C1750.41 287.833 1750.32 287.691 1750.19 287.597C1750.06 287.503 1749.89 287.466 1749.74 287.493C1749.74 287.493 1749.74 287.493 1749.74 287.493C1733.65 290.217 1717.98 292.468 1702.57 294.282C1484.12 329.576 1237.88 231.216 1147.89 20.4633C1120.55 -36.9152 1102.18 -98.6445 1093.32 -161.771C1091.14 -177.432 1089.56 -193.628 1088.77 -209.262Z" fill="#CCDBFF"/>
<path d="M1094.52 -225.529C1094.52 -225.69 1094.45 -225.841 1094.33 -225.95C1094.21 -226.059 1094.05 -226.115 1093.89 -226.108C1093.73 -226.101 1093.58 -226.029 1093.47 -225.91C1093.36 -225.791 1093.31 -225.634 1093.31 -225.472C1093.31 -225.472 1093.31 -225.472 1093.31 -225.472C1093.82 -209.786 1095.17 -193.516 1097.14 -177.772C1105.18 -114.312 1123.22 -52.0871 1150.72 5.61791C1241.18 217.741 1490.03 316.178 1708.49 279.489C1723.91 277.588 1739.6 275.247 1755.69 272.431C1755.84 272.403 1755.99 272.313 1756.08 272.181C1756.17 272.049 1756.21 271.885 1756.18 271.726C1756.16 271.566 1756.07 271.424 1755.94 271.331C1755.81 271.237 1755.64 271.2 1755.49 271.227C1755.49 271.227 1755.49 271.227 1755.49 271.227C1739.4 273.951 1723.73 276.201 1708.32 278.016C1489.87 313.31 1243.63 214.949 1153.64 4.19678C1126.3 -53.1817 1107.93 -114.911 1099.07 -178.038C1096.89 -193.698 1095.3 -209.895 1094.52 -225.529Z" fill="#CCDBFF"/>
<path d="M1097.77 -242.261C1097.76 -242.422 1097.69 -242.574 1097.57 -242.682C1097.45 -242.791 1097.3 -242.848 1097.14 -242.841C1096.98 -242.833 1096.83 -242.762 1096.72 -242.643C1096.61 -242.524 1096.55 -242.366 1096.56 -242.205C1096.56 -242.205 1096.56 -242.205 1096.56 -242.205C1097.07 -226.518 1098.41 -210.248 1100.38 -194.505C1108.42 -131.045 1126.47 -68.8196 1153.97 -11.1146C1244.42 201.009 1493.27 299.446 1711.74 262.757C1727.16 260.855 1742.84 258.515 1758.93 255.698C1759.09 255.67 1759.23 255.581 1759.32 255.448C1759.42 255.316 1759.45 255.152 1759.43 254.993C1759.4 254.834 1759.31 254.691 1759.18 254.598C1759.05 254.504 1758.89 254.467 1758.73 254.494C1758.73 254.494 1758.73 254.494 1758.73 254.494C1742.64 257.218 1726.97 259.469 1711.57 261.283C1493.11 296.577 1246.88 198.217 1156.89 -12.5358C1129.55 -69.9142 1111.18 -131.644 1102.31 -194.77C1100.13 -210.431 1098.55 -226.627 1097.77 -242.261Z" fill="#CCDBFF"/>
</g>
<defs>
<clipPath id="clip0_108_224">
<rect width="1518" height="610" fill="white"/>
</clipPath>
</defs>
</svg>
