<svg width="496" height="77" viewBox="0 0 496 77" fill="none" xmlns="http://www.w3.org/2000/svg">
<g filter="url(#filter0_d_32_1598)">
<path d="M40.105 1.5C46.66 1.5 51.125 6.81999 50.08 13.375L47.895 26.96H36.02L37.255 19.36C37.825 16.035 35.545 13.375 32.315 13.375H29.655C26.33 13.375 23.29 16.035 22.72 19.36L17.875 50.235C17.305 53.56 19.585 56.22 22.815 56.22H25.475C28.8 56.22 31.84 53.56 32.315 50.235L33.55 42.635H45.425L43.24 56.22C42.195 62.775 36.115 68 29.56 68H15.025C8.47 68 4.005 62.775 5.05 56.22L11.89 13.375C12.84 6.81999 19.015 1.5 25.57 1.5H40.105ZM91.4258 4.54C92.9458 6.44 93.6108 9.005 93.2308 11.665L84.3008 68H72.4258L74.9908 51.85L61.7858 43.87L57.8908 68H46.1108L55.0408 11.665C55.4208 9.005 56.9408 6.44 59.1258 4.54V4.445C61.3108 2.64 64.0658 1.5 66.7258 1.5H84.7758C87.4358 1.5 89.8108 2.64 91.3308 4.445L91.4258 4.54ZM77.1758 38.36L80.5008 17.365C80.7858 15.18 79.3608 13.375 77.1758 13.375H70.5258C68.3408 13.375 66.3458 15.18 65.9658 17.365L63.8758 30.285L77.1758 38.36ZM148.042 2.165C151.557 0.359999 155.167 2.735 154.502 6.44L144.812 68.095H132.937L140.917 17.84L132.842 21.83C131.322 22.59 130.182 24.11 129.992 25.63L123.247 68.095H111.372L118.117 25.63C118.402 24.11 117.737 22.59 116.502 21.83L109.757 17.84L101.777 68.095H89.9021L99.6871 6.44C100.257 2.735 104.532 0.359999 107.477 2.165L122.012 10.525C124.577 11.95 127.902 11.95 130.847 10.525L148.042 2.165ZM183.448 1.5C192.188 1.5 198.078 8.625 196.748 17.365L193.898 35.035C192.568 43.775 184.398 50.805 175.658 50.805H165.113L162.358 68H150.578L161.123 1.5H183.448ZM184.303 21.26C184.968 16.89 182.023 13.375 177.653 13.375H171.003L167.013 39.025H173.568C177.938 39.025 182.023 35.415 182.688 31.045L184.303 21.26ZM220.532 1.5C231.077 1.5 238.297 10.145 236.587 20.69L235.922 24.965H224.047L224.712 20.69C225.377 16.605 222.622 13.375 218.632 13.375C214.642 13.375 210.842 16.605 210.177 20.69L209.892 22.495L227.087 33.8C231.267 36.46 233.262 41.495 232.407 46.815L232.122 48.905C230.412 59.45 220.532 68 209.987 68C199.442 68 192.222 59.45 193.932 48.905L194.122 47.385H205.997L205.712 48.905C205.142 52.895 207.802 56.22 211.887 56.22C215.877 56.22 219.582 52.895 220.247 48.905L220.912 44.915L203.717 33.705C199.537 30.95 197.542 26.01 198.397 20.69C200.012 10.145 209.987 1.5 220.532 1.5ZM269.81 1.5H281.59L274.085 49C272.47 59.45 262.59 68 252.045 68C241.5 68 234.28 59.45 235.99 49L243.495 1.5H255.275L247.295 52.23C246.915 54.415 248.435 56.22 250.62 56.22H257.175C259.36 56.22 261.355 54.415 261.735 52.23L269.81 1.5ZM312.952 1.5C319.507 1.5 323.972 6.81999 322.927 13.375L320.742 26.96H308.867L310.102 19.36C310.672 16.035 308.392 13.375 305.162 13.375H302.502C299.177 13.375 296.137 16.035 295.567 19.36L290.722 50.235C290.152 53.56 292.432 56.22 295.662 56.22H298.322C301.647 56.22 304.687 53.56 305.162 50.235L306.397 42.635H318.272L316.087 56.22C315.042 62.775 308.962 68 302.407 68H287.872C281.317 68 276.852 62.775 277.897 56.22L284.737 13.375C285.687 6.81999 291.862 1.5 298.417 1.5H312.952ZM355.627 1.5C362.182 1.5 366.647 6.81999 365.602 13.375L363.417 26.96H351.542L352.777 19.36C353.347 16.035 351.067 13.375 347.837 13.375H345.177C341.852 13.375 338.812 16.035 338.242 19.36L333.397 50.235C332.827 53.56 335.107 56.22 338.337 56.22H340.997C344.322 56.22 347.362 53.56 347.837 50.235L349.072 42.635H360.947L358.762 56.22C357.717 62.775 351.637 68 345.082 68H330.547C323.992 68 319.527 62.775 320.572 56.22L327.412 13.375C328.362 6.81999 334.537 1.5 341.092 1.5H355.627ZM398.303 1.5C404.858 1.5 409.323 6.81999 408.278 13.375L403.813 41.59H393.078L378.353 35.51L375.788 52.23C375.408 54.415 376.928 56.22 379.113 56.22H385.668C387.853 56.22 389.943 54.415 390.228 52.23L390.988 47.575H402.863L401.438 56.22C400.393 62.775 394.313 68 387.758 68H373.223C366.668 68 362.203 62.775 363.248 56.22L370.088 13.375C371.038 6.81999 377.213 1.5 383.768 1.5H398.303ZM394.028 28.385L395.738 17.365C396.118 15.18 394.598 13.375 392.413 13.375H385.858C383.673 13.375 381.583 15.18 381.298 17.365L380.443 22.78L394.028 28.385ZM432.798 1.5C443.343 1.5 450.563 10.145 448.853 20.69L448.188 24.965H436.313L436.978 20.69C437.643 16.605 434.888 13.375 430.898 13.375C426.908 13.375 423.108 16.605 422.443 20.69L422.158 22.495L439.353 33.8C443.533 36.46 445.528 41.495 444.673 46.815L444.388 48.905C442.678 59.45 432.798 68 422.253 68C411.708 68 404.488 59.45 406.198 48.905L406.388 47.385H418.263L417.978 48.905C417.408 52.895 420.068 56.22 424.153 56.22C428.143 56.22 431.848 52.895 432.513 48.905L433.178 44.915L415.983 33.705C411.803 30.95 409.808 26.01 410.663 20.69C412.278 10.145 422.253 1.5 432.798 1.5ZM473.525 1.5C484.07 1.5 491.29 10.145 489.58 20.69L488.915 24.965H477.04L477.705 20.69C478.37 16.605 475.615 13.375 471.625 13.375C467.635 13.375 463.835 16.605 463.17 20.69L462.885 22.495L480.08 33.8C484.26 36.46 486.255 41.495 485.4 46.815L485.115 48.905C483.405 59.45 473.525 68 462.98 68C452.435 68 445.215 59.45 446.925 48.905L447.115 47.385H458.99L458.705 48.905C458.135 52.895 460.795 56.22 464.88 56.22C468.87 56.22 472.575 52.895 473.24 48.905L473.905 44.915L456.71 33.705C452.53 30.95 450.535 26.01 451.39 20.69C453.005 10.145 462.98 1.5 473.525 1.5Z" fill="white"/>
</g>
<defs>
<filter id="filter0_d_32_1598" x="0.00500488" y="0.359985" width="495.285" height="75.735" filterUnits="userSpaceOnUse" color-interpolation-filters="sRGB">
<feFlood flood-opacity="0" result="BackgroundImageFix"/>
<feColorMatrix in="SourceAlpha" type="matrix" values="0 0 0 0 0 0 0 0 0 0 0 0 0 0 0 0 0 0 127 0" result="hardAlpha"/>
<feOffset dy="4"/>
<feGaussianBlur stdDeviation="2"/>
<feComposite in2="hardAlpha" operator="out"/>
<feColorMatrix type="matrix" values="0 0 0 0 0 0 0 0 0 0 0 0 0 0 0 0 0 0 0.25 0"/>
<feBlend mode="normal" in2="BackgroundImageFix" result="effect1_dropShadow_32_1598"/>
<feBlend mode="normal" in="SourceGraphic" in2="effect1_dropShadow_32_1598" result="shape"/>
</filter>
</defs>
</svg>
