<svg width="527" height="862" viewBox="0 0 527 862" fill="none" xmlns="http://www.w3.org/2000/svg">
<path d="M1185.01 75.3963C1185.17 75.4308 1185.34 75.4025 1185.47 75.317C1185.61 75.2315 1185.7 75.0959 1185.73 74.9399C1185.76 74.7839 1185.72 74.6202 1185.63 74.4846C1185.54 74.3491 1185.4 74.2529 1185.24 74.2166C1161.19 68.7301 1135.96 64.1727 1111.26 60.6816C1011.81 46.7638 910.706 47.0688 812.217 61.7131C458.643 99.9701 183.334 399.25 140.299 741.926C136.193 765.803 132.777 789.793 129.918 814.864C129.9 815.023 129.947 815.184 130.048 815.313C130.15 815.442 130.297 815.527 130.459 815.55C130.62 815.574 130.782 815.533 130.909 815.438C131.036 815.343 131.118 815.2 131.137 815.041C134.084 790.005 137.583 766.054 141.768 742.222C186.143 400.082 460.497 103.163 812.814 64.9025C910.98 50.3086 1011.72 49.562 1111.06 62.5983C1135.73 65.8696 1160.94 70.1802 1185.01 75.3963Z" fill="#CCDBFF"/>
<path d="M1200.15 95.2857C1200.31 95.3202 1200.48 95.2919 1200.61 95.2064C1200.74 95.1209 1200.84 94.9853 1200.87 94.8293C1200.9 94.6733 1200.86 94.5096 1200.77 94.374C1200.68 94.2385 1200.54 94.1423 1200.38 94.106C1176.33 88.6195 1151.1 84.0621 1126.4 80.571C1026.95 66.6532 925.846 66.9582 827.356 81.6025C473.783 119.86 198.474 419.139 155.439 761.816C151.333 785.693 147.917 809.682 145.058 834.754C145.04 834.912 145.087 835.074 145.188 835.202C145.289 835.331 145.437 835.416 145.598 835.44C145.76 835.463 145.922 835.423 146.049 835.327C146.176 835.232 146.258 835.089 146.277 834.931C149.223 809.894 152.723 785.944 156.908 762.112C201.283 419.971 475.637 123.052 827.953 84.7919C926.119 70.198 1026.86 69.4514 1126.2 82.4877C1150.87 85.759 1176.08 90.0696 1200.15 95.2857Z" fill="#CCDBFF"/>
<path d="M1222.66 110.052C1222.82 110.086 1222.98 110.058 1223.12 109.972C1223.25 109.887 1223.34 109.751 1223.37 109.595C1223.4 109.439 1223.37 109.275 1223.28 109.14C1223.19 109.004 1223.05 108.908 1222.89 108.872C1198.83 103.385 1173.61 98.828 1148.91 95.3369C1049.46 81.4191 948.352 81.7241 849.862 96.3683C496.289 134.625 220.98 433.905 177.945 776.582C173.839 800.458 170.423 824.448 167.564 849.519C167.546 849.678 167.593 849.839 167.694 849.968C167.795 850.097 167.943 850.182 168.104 850.206C168.266 850.229 168.428 850.189 168.555 850.093C168.682 849.998 168.764 849.855 168.782 849.697C171.729 824.66 175.229 800.71 179.413 776.877C223.788 434.737 498.142 137.818 850.459 99.5578C948.625 84.9638 1049.36 84.2173 1148.7 97.2536C1173.37 100.525 1198.59 104.835 1222.66 110.052Z" fill="#CCDBFF"/>
<path d="M1246.98 121.443C1247.14 121.478 1247.3 121.45 1247.43 121.364C1247.57 121.279 1247.66 121.143 1247.69 120.987C1247.72 120.831 1247.69 120.667 1247.6 120.532C1247.51 120.396 1247.37 120.3 1247.21 120.264C1223.15 114.777 1197.93 110.22 1173.23 106.729C1073.78 92.8109 972.67 93.1159 874.18 107.76C520.607 146.017 245.298 445.297 202.263 787.973C198.157 811.85 194.741 835.84 191.882 860.911C191.864 861.07 191.911 861.231 192.012 861.36C192.113 861.489 192.261 861.574 192.422 861.598C192.584 861.621 192.746 861.581 192.873 861.485C193 861.39 193.082 861.247 193.101 861.088C196.048 836.052 199.547 812.101 203.732 788.269C248.107 446.129 522.461 149.21 874.778 110.95C972.943 96.3557 1073.68 95.6091 1173.02 108.645C1197.69 111.917 1222.91 116.227 1246.98 121.443Z" fill="#CCDBFF"/>
</svg>
