<svg width="396" height="1209" viewBox="0 0 396 1209" fill="none" xmlns="http://www.w3.org/2000/svg">
<path d="M-51.7576 1069.92C-51.8696 1070.03 -51.9353 1070.18 -51.9397 1070.34C-51.9441 1070.51 -51.8869 1070.67 -51.7807 1070.81C-51.6744 1070.94 -51.5277 1071.03 -51.3727 1071.05C-51.2176 1071.07 -51.0671 1071.03 -50.9536 1070.93C-37.4156 1058.99 -24.2156 1045.57 -12.2406 1031.74C36.1704 975.718 72.1402 906.555 88.2189 829.598C149.712 540.359 -98.22 283.179 -318.76 131.19C-334.823 119.907 -351.443 108.602 -368.635 97.28C-368.773 97.1889 -368.934 97.157 -369.082 97.1914C-369.23 97.2258 -369.353 97.3237 -369.423 97.4637C-369.494 97.6036 -369.507 97.7742 -369.46 97.9378C-369.412 98.1016 -369.308 98.2449 -369.17 98.3366C-352.028 109.73 -335.46 121.101 -319.45 132.446C-99.4091 285.441 146.314 541.977 85.1645 828.542C69.2056 904.906 33.9088 973.83 -13.6796 1030.29C-25.4498 1044.23 -38.4341 1057.8 -51.7576 1069.92Z" fill="#CCDBFF"/>
<path d="M-74.2513 1068.77C-74.3633 1068.87 -74.429 1069.02 -74.4333 1069.19C-74.4377 1069.35 -74.3806 1069.52 -74.2743 1069.65C-74.168 1069.78 -74.0213 1069.87 -73.8663 1069.89C-73.7112 1069.92 -73.5607 1069.87 -73.4472 1069.77C-59.9092 1057.84 -46.7093 1044.41 -34.7343 1030.58C13.6767 974.563 49.6466 905.4 65.7252 828.443C127.218 539.204 -120.714 282.023 -341.254 130.034C-357.317 118.751 -373.936 107.446 -391.129 96.1245C-391.267 96.0334 -391.428 96.0015 -391.575 96.0359C-391.723 96.0703 -391.846 96.1682 -391.917 96.3081C-391.988 96.4481 -392.001 96.6187 -391.953 96.7823C-391.906 96.946 -391.802 97.0894 -391.664 97.1811C-374.522 108.574 -357.954 119.945 -341.944 131.29C-121.903 284.286 123.82 540.821 62.6708 827.386C46.7119 903.75 11.4152 972.674 -36.1733 1029.13C-47.9435 1043.07 -60.9278 1056.64 -74.2513 1068.77Z" fill="#CCDBFF"/>
<path d="M-94.5682 1074.38C-94.6802 1074.49 -94.7459 1074.64 -94.7502 1074.8C-94.7546 1074.97 -94.6975 1075.13 -94.5912 1075.27C-94.4849 1075.4 -94.3382 1075.49 -94.1832 1075.51C-94.0281 1075.53 -93.8776 1075.49 -93.7641 1075.39C-80.2261 1063.45 -67.0262 1050.03 -55.0511 1036.2C-6.6402 980.177 29.3297 911.014 45.4083 834.057C106.901 544.819 -141.031 287.638 -361.571 135.649C-377.633 124.366 -394.253 113.061 -411.445 101.739C-411.584 101.648 -411.745 101.616 -411.892 101.651C-412.04 101.685 -412.163 101.783 -412.234 101.923C-412.305 102.063 -412.318 102.233 -412.27 102.397C-412.223 102.561 -412.118 102.704 -411.98 102.796C-394.839 114.189 -378.271 125.56 -362.261 136.905C-142.22 289.9 103.503 546.436 42.3539 833.001C26.395 909.365 -8.90171 978.289 -56.4902 1034.75C-68.2604 1048.69 -81.2447 1062.26 -94.5682 1074.38Z" fill="#CCDBFF"/>
<path d="M-112.476 1082.71C-112.588 1082.81 -112.654 1082.96 -112.658 1083.13C-112.662 1083.29 -112.605 1083.46 -112.499 1083.59C-112.393 1083.73 -112.246 1083.81 -112.091 1083.84C-111.936 1083.86 -111.785 1083.81 -111.672 1083.71C-98.1338 1071.78 -84.9339 1058.35 -72.9589 1044.53C-24.5479 988.505 11.422 919.342 27.5006 842.385C88.9935 553.146 -158.938 295.966 -379.479 143.977C-395.541 132.694 -412.161 121.389 -429.353 110.067C-429.491 109.976 -429.652 109.944 -429.8 109.978C-429.948 110.013 -430.071 110.111 -430.142 110.251C-430.213 110.391 -430.226 110.561 -430.178 110.725C-430.131 110.889 -430.026 111.032 -429.888 111.124C-412.746 122.517 -396.178 133.888 -380.169 145.233C-160.127 298.228 85.5952 554.764 24.4462 841.329C8.48733 917.693 -26.8094 986.617 -74.3979 1043.08C-86.1681 1057.01 -99.1524 1070.58 -112.476 1082.71Z" fill="#CCDBFF"/>
</svg>
