<svg width="1512" height="895" viewBox="0 0 1512 895" fill="none" xmlns="http://www.w3.org/2000/svg">
<g clip-path="url(#clip0_1_326)">
<path d="M215.557 931.904C215.894 931.895 216.23 931.886 216.567 931.876C216.33 919.077 215.464 905.846 214.091 892.935C208.504 841.093 195.058 789.965 173.732 742.266C105.352 565.523 -104.139 486.041 -281.528 525.191C-294.037 527.268 -306.815 529.726 -319.899 532.589C-319.828 532.918 -319.757 533.247 -319.686 533.576C-306.602 530.79 -293.83 528.406 -281.33 526.402C-103.864 488.444 103.228 567.81 171.274 743.367C192.475 790.792 206.203 841.526 212.485 893.116C214.032 905.965 215.097 919.142 215.557 931.904Z" fill="#CCDBFF"/>
<path d="M142.319 1020.72C142.648 1020.79 142.977 1020.86 143.306 1020.93C146.102 1008.44 148.388 995.378 150.106 982.508C156.934 930.816 155.955 877.958 146.51 826.569C121.85 638.671 -62.9129 511.918 -244.529 508.023C-257.175 507.084 -270.171 506.452 -283.562 506.141C-283.571 506.477 -283.579 506.814 -283.588 507.15C-270.216 507.536 -257.242 508.239 -244.623 509.246C-63.2142 514.317 119.246 640.391 143.862 827.058C153.25 878.151 154.595 930.692 148.503 982.305C146.969 995.156 144.888 1008.21 142.319 1020.72Z" fill="#CCDBFF"/>
<path d="M63.7547 1080.75C64.0641 1080.88 64.3736 1081.01 64.683 1081.15C69.8256 1069.42 74.5775 1057.04 78.7353 1044.74C95.3631 995.324 104.553 943.263 105.153 891.016C117.037 701.88 -39.9442 542.004 -217.432 503.303C-229.662 499.952 -242.295 496.837 -255.376 493.959C-255.45 494.288 -255.523 494.616 -255.596 494.945C-242.547 497.892 -229.95 501.073 -217.759 504.485C-40.7007 544.3 114.151 703.068 102.46 890.988C101.862 942.932 93.092 994.754 77.2013 1044.24C73.2273 1056.55 68.6787 1068.97 63.7547 1080.75Z" fill="#CCDBFF"/>
<path d="M1326.02 -139.99C1325.68 -140.024 1325.35 -140.058 1325.01 -140.092C1323.6 -127.368 1322.76 -114.135 1322.47 -101.155C1321.35 -49.025 1328.12 3.40622 1343.14 53.4499C1388.26 237.51 1585.81 343.238 1766.76 327.193C1779.43 326.74 1792.42 325.943 1805.76 324.784C1805.73 324.449 1805.7 324.113 1805.67 323.778C1792.34 324.861 1779.37 325.585 1766.71 325.967C1585.84 340.82 1390.66 235.515 1345.72 52.6729C1330.79 2.9185 1323.69 -49.1586 1324.08 -101.129C1324.2 -114.07 1324.84 -127.274 1326.02 -139.99Z" fill="#CCDBFF"/>
<path d="M1410.06 -218.665C1409.74 -218.777 1409.42 -218.889 1409.1 -219.001C1404.73 -206.971 1400.78 -194.312 1397.43 -181.77C1384.02 -131.382 1378.2 -78.8364 1380.97 -26.6595C1381.29 162.849 1548.25 312.281 1727.86 339.467C1740.28 342.023 1753.09 344.318 1766.33 346.347C1766.38 346.014 1766.43 345.682 1766.48 345.349C1753.27 343.249 1740.49 340.886 1728.11 338.267C1548.85 309.94 1384.09 161.478 1383.66 -26.8049C1380.91 -78.6798 1386.32 -130.959 1398.99 -181.362C1402.16 -193.909 1405.9 -206.589 1410.06 -218.665Z" fill="#CCDBFF"/>
<path d="M1495.68 -268.106C1495.39 -268.278 1495.1 -268.449 1494.81 -268.62C1488.2 -257.654 1481.9 -245.988 1476.2 -234.324C1453.36 -187.449 1437.56 -136.999 1430.26 -85.2618C1394.18 100.782 1529.33 279.494 1700.38 340.669C1712.08 345.562 1724.21 350.274 1736.81 354.808C1736.92 354.491 1737.04 354.175 1737.15 353.859C1724.59 349.26 1712.51 344.487 1700.86 339.538C1530.38 277.314 1397.2 99.9747 1432.92 -84.8882C1440.19 -136.325 1455.54 -186.592 1477.65 -233.624C1483.18 -245.328 1489.28 -257.054 1495.68 -268.106Z" fill="#CCDBFF"/>
</g>
<defs>
<clipPath id="clip0_1_326">
<rect width="1514" height="895" fill="white" transform="translate(-1)"/>
</clipPath>
</defs>
</svg>
