<svg width="388" height="105" viewBox="0 0 388 105" fill="none" xmlns="http://www.w3.org/2000/svg">
<rect width="387.874" height="104.868" fill="#FAFCFF"/>
<path d="M50.332 57.5234C51.3806 57.3137 53.6036 57.5234 54.1069 60.0399" stroke="white" stroke-width="0.377483" stroke-linecap="round"/>
<path d="M71.8442 16H93.225C93.225 48.5118 78.538 73.0292 57.937 88.4093C37.336 73.0292 22.6489 48.5118 22.6489 16H71.8442Z" stroke="#003DCC" stroke-width="3.11506" stroke-linecap="square"/>
<path d="M29.0654 49.9131H86.3512" stroke="#003DCC" stroke-width="0.0916573"/>
<path d="M57.9375 49.9131V16.9165H92.309C92.1562 27.1516 90.8425 48.08 86.8095 49.9131H57.9375Z" fill="#003DCC" stroke="#003DCC" stroke-width="0.0916573"/>
<path d="M42.4678 25.5014V44.6337C46.9172 39.2945 51.8856 40.9259 53.8137 42.409V23.9441C49.0084 20.5626 44.2475 23.5733 42.4678 25.5014Z" fill="#003DCC" stroke="white" stroke-width="0.458286"/>
<path d="M42.2451 25.5014V44.6337C37.7957 39.2945 32.8273 40.9259 30.8992 42.409V23.9441C35.7045 20.5626 40.4654 23.5733 42.2451 25.5014Z" fill="#003DCC" stroke="white" stroke-width="0.458286"/>
<path d="M57.9382 49.9131H29.5244C30.2577 60.912 48.7724 80.4655 57.9382 88.8674V49.9131Z" fill="#003DCC"/>
<path d="M52.0044 62.9201C51.8723 61.5986 50.8482 60.3874 50.3526 59.9469C48.767 63.2504 47.8199 62.865 47.5446 62.2594C50.8482 59.1477 48.1503 55.7873 46.3884 54.4961C47.1813 56.7425 45.5075 59.066 44.5715 59.9469C42.193 61.2683 42.4793 64.4617 42.9197 65.8932C46.7518 68.0075 50.3526 66.7742 51.674 65.8932C52.0705 65.3647 52.0595 63.6909 52.0044 62.9201Z" fill="#F9C300" stroke="#F9C300" stroke-width="0.820092"/>
<path d="M52.2467 68.5415H42.6665C42.5344 69.7308 42.7216 70.4686 42.8317 70.6888H43.6576C44.3183 70.6888 44.5936 71.2394 44.6487 71.5147C44.3844 72.8361 45.3094 73.1664 45.8049 73.1664L46.3115 74.9985L49.1084 77.8688V73.1664C49.637 73.0343 48.9616 72.3484 49.1818 72.1282C49.1818 70.5425 51.4209 70.6888 51.9164 70.854C52.7092 70.1933 52.467 69.037 52.2467 68.5415Z" fill="white" stroke="white" stroke-width="0.820092"/>
<path d="M42.8373 68.5415H52.4174C52.5496 69.7308 52.3624 70.4686 52.2523 70.6888H51.4264C50.7657 70.6888 50.4904 71.2394 50.4353 71.5147C50.6996 72.8361 49.7746 73.1664 49.2791 73.1664L48.7725 74.9985L47.5423 74.1784L45.9756 73.1664C45.447 73.0343 45.3023 72.3484 45.0821 72.1282C45.0821 70.5425 43.6631 70.6888 43.1676 70.854C42.3748 70.1933 42.617 69.037 42.8373 68.5415Z" fill="white" stroke="white" stroke-width="0.820092"/>
<path d="M40.981 70.8979H53.2823" stroke="#003DCC" stroke-width="0.820092" stroke-linecap="round"/>
<path d="M74.8943 27.9154C76.3529 27.9154 77.7517 28.4948 78.783 29.5261C79.8143 30.5575 80.3937 31.9563 80.3937 33.4148C80.3937 35.4496 79.2847 37.2278 77.644 38.181V39.8308C77.644 40.0739 77.5475 40.3071 77.3756 40.4789C77.2037 40.6508 76.9705 40.7474 76.7275 40.7474H73.0612C72.8181 40.7474 72.5849 40.6508 72.4131 40.4789C72.2412 40.3071 72.1446 40.0739 72.1446 39.8308V38.181C70.5039 37.2278 69.3949 35.4496 69.3949 33.4148C69.3949 31.9563 69.9743 30.5575 71.0056 29.5261C72.037 28.4948 73.4358 27.9154 74.8943 27.9154ZM76.7275 41.664V42.5805C76.7275 42.8236 76.6309 43.0568 76.459 43.2287C76.2871 43.4006 76.054 43.4971 75.8109 43.4971H73.9777C73.7346 43.4971 73.5015 43.4006 73.3296 43.2287C73.1577 43.0568 73.0612 42.8236 73.0612 42.5805V41.664H76.7275ZM82.2269 32.4982H84.9766V34.3314H82.2269V32.4982ZM64.812 32.4982H67.5617V34.3314H64.812V32.4982ZM75.8109 23.3325V26.0822H73.9777V23.3325H75.8109ZM68.405 25.624L70.3573 27.5854L69.0557 28.8778L67.1034 26.9347L68.405 25.624ZM79.4313 27.5763L81.3745 25.624L82.6852 26.9347L80.7329 28.8778L79.4313 27.5763Z" fill="white"/>
<path d="M74.8945 27.9155C76.353 27.9155 77.7518 28.4949 78.7831 29.5263C79.8145 30.5576 80.3939 31.9564 80.3939 33.415C80.3939 35.4498 79.2848 37.2279 77.6442 38.1811V39.831C77.6442 40.0741 77.5476 40.3072 77.3757 40.4791C77.2038 40.651 76.9707 40.7475 76.7276 40.7475H73.0613C72.8182 40.7475 72.5851 40.651 72.4132 40.4791C72.2413 40.3072 72.1447 40.0741 72.1447 39.831V38.1811C70.5041 37.2279 69.395 35.4498 69.395 33.415C69.395 31.9564 69.9744 30.5576 71.0058 29.5263C72.0371 28.4949 73.4359 27.9155 74.8945 27.9155Z" fill="#F9C300"/>
<path d="M82.2269 32.4982H84.9766V34.3314H82.2269V32.4982ZM64.812 32.4982H67.5617V34.3314H64.812V32.4982ZM75.8109 23.3325V26.0822H73.9777V23.3325H75.8109ZM68.405 25.624L70.3573 27.5854L69.0557 28.8778L67.1034 26.9347L68.405 25.624ZM79.4313 27.5763L81.3745 25.624L82.6852 26.9347L80.7329 28.8778L79.4313 27.5763Z" fill="#F9C300"/>
<circle cx="68.8254" cy="62.0657" r="7.53785" fill="#003DCC"/>
<path d="M61.2876 62.0657C63.8002 62.6938 68.4486 62.0657 66.941 54.5278" stroke="white" stroke-width="1.88446" stroke-linecap="round"/>
<path d="M70.7116 69.6035C69.4553 66.4627 68.8271 60.1812 76.365 60.1812" stroke="white" stroke-width="1.88446" stroke-linecap="round"/>
<path d="M127.784 33.4336C130.889 33.4336 133.004 35.9536 132.509 39.0586L131.474 45.4936H125.849L126.434 41.8936C126.704 40.3186 125.624 39.0586 124.094 39.0586H122.834C121.259 39.0586 119.819 40.3186 119.549 41.8936L117.254 56.5186C116.984 58.0936 118.064 59.3536 119.594 59.3536H120.854C122.429 59.3536 123.869 58.0936 124.094 56.5186L124.679 52.9186H130.304L129.269 59.3536C128.774 62.4586 125.894 64.9336 122.789 64.9336H115.904C112.799 64.9336 110.684 62.4586 111.179 59.3536L114.419 39.0586C114.869 35.9536 117.794 33.4336 120.899 33.4336H127.784ZM154.344 34.8736C155.064 35.7736 155.379 36.9886 155.199 38.2486L150.969 64.9336H145.344L146.559 57.2836L140.304 53.5036L138.459 64.9336H132.879L137.109 38.2486C137.289 36.9886 138.009 35.7736 139.044 34.8736V34.8286C140.079 33.9736 141.384 33.4336 142.644 33.4336H151.194C152.454 33.4336 153.579 33.9736 154.299 34.8286L154.344 34.8736ZM147.594 50.8936L149.169 40.9486C149.304 39.9136 148.629 39.0586 147.594 39.0586H144.444C143.409 39.0586 142.464 39.9136 142.284 40.9486L141.294 47.0686L147.594 50.8936ZM183.412 33.7486C185.077 32.8936 186.787 34.0186 186.472 35.7736L181.882 64.9786H176.257L180.037 41.1736L176.212 43.0636C175.492 43.4236 174.952 44.1436 174.862 44.8636L171.667 64.9786H166.042L169.237 44.8636C169.372 44.1436 169.057 43.4236 168.472 43.0636L165.277 41.1736L161.497 64.9786H155.872L160.507 35.7736C160.777 34.0186 162.802 32.8936 164.197 33.7486L171.082 37.7086C172.297 38.3836 173.872 38.3836 175.267 37.7086L183.412 33.7486ZM202.434 33.4336C206.574 33.4336 209.364 36.8086 208.734 40.9486L207.384 49.3186C206.754 53.4586 202.884 56.7886 198.744 56.7886H193.749L192.444 64.9336H186.864L191.859 33.4336H202.434ZM202.839 42.7936C203.154 40.7236 201.759 39.0586 199.689 39.0586H196.539L194.649 51.2086H197.754C199.824 51.2086 201.759 49.4986 202.074 47.4286L202.839 42.7936ZM222.25 33.4336C227.245 33.4336 230.665 37.5286 229.855 42.5236L229.54 44.5486H223.915L224.23 42.5236C224.545 40.5886 223.24 39.0586 221.35 39.0586C219.46 39.0586 217.66 40.5886 217.345 42.5236L217.21 43.3786L225.355 48.7336C227.335 49.9936 228.28 52.3786 227.875 54.8986L227.74 55.8886C226.93 60.8836 222.25 64.9336 217.255 64.9336C212.26 64.9336 208.84 60.8836 209.65 55.8886L209.74 55.1686H215.365L215.23 55.8886C214.96 57.7786 216.22 59.3536 218.155 59.3536C220.045 59.3536 221.8 57.7786 222.115 55.8886L222.43 53.9986L214.285 48.6886C212.305 47.3836 211.36 45.0436 211.765 42.5236C212.53 37.5286 217.255 33.4336 222.25 33.4336ZM247.842 33.4336H253.422L249.867 55.9336C249.102 60.8836 244.422 64.9336 239.427 64.9336C234.432 64.9336 231.012 60.8836 231.822 55.9336L235.377 33.4336H240.957L237.177 57.4636C236.997 58.4986 237.717 59.3536 238.752 59.3536H241.857C242.892 59.3536 243.837 58.4986 244.017 57.4636L247.842 33.4336ZM270.528 33.4336C273.633 33.4336 275.748 35.9536 275.253 39.0586L274.218 45.4936H268.593L269.178 41.8936C269.448 40.3186 268.368 39.0586 266.838 39.0586H265.578C264.003 39.0586 262.563 40.3186 262.293 41.8936L259.998 56.5186C259.728 58.0936 260.808 59.3536 262.338 59.3536H263.598C265.173 59.3536 266.613 58.0936 266.838 56.5186L267.423 52.9186H273.048L272.013 59.3536C271.518 62.4586 268.638 64.9336 265.533 64.9336H258.648C255.543 64.9336 253.428 62.4586 253.923 59.3536L257.163 39.0586C257.613 35.9536 260.538 33.4336 263.643 33.4336H270.528ZM292.992 33.4336C296.097 33.4336 298.212 35.9536 297.717 39.0586L296.682 45.4936H291.057L291.642 41.8936C291.912 40.3186 290.832 39.0586 289.302 39.0586H288.042C286.467 39.0586 285.027 40.3186 284.757 41.8936L282.462 56.5186C282.192 58.0936 283.272 59.3536 284.802 59.3536H286.062C287.637 59.3536 289.077 58.0936 289.302 56.5186L289.887 52.9186H295.512L294.477 59.3536C293.982 62.4586 291.102 64.9336 287.997 64.9336H281.112C278.007 64.9336 275.892 62.4586 276.387 59.3536L279.627 39.0586C280.077 35.9536 283.002 33.4336 286.107 33.4336H292.992ZM315.457 33.4336C318.562 33.4336 320.677 35.9536 320.182 39.0586L318.067 52.4236H312.982L306.007 49.5436L304.792 57.4636C304.612 58.4986 305.332 59.3536 306.367 59.3536H309.472C310.507 59.3536 311.497 58.4986 311.632 57.4636L311.992 55.2586H317.617L316.942 59.3536C316.447 62.4586 313.567 64.9336 310.462 64.9336H303.577C300.472 64.9336 298.357 62.4586 298.852 59.3536L302.092 39.0586C302.542 35.9536 305.467 33.4336 308.572 33.4336H315.457ZM313.432 46.1686L314.242 40.9486C314.422 39.9136 313.702 39.0586 312.667 39.0586H309.562C308.527 39.0586 307.537 39.9136 307.402 40.9486L306.997 43.5136L313.432 46.1686ZM334.047 33.4336C339.042 33.4336 342.462 37.5286 341.652 42.5236L341.337 44.5486H335.712L336.027 42.5236C336.342 40.5886 335.037 39.0586 333.147 39.0586C331.257 39.0586 329.457 40.5886 329.142 42.5236L329.007 43.3786L337.152 48.7336C339.132 49.9936 340.077 52.3786 339.672 54.8986L339.537 55.8886C338.727 60.8836 334.047 64.9336 329.052 64.9336C324.057 64.9336 320.637 60.8836 321.447 55.8886L321.537 55.1686H327.162L327.027 55.8886C326.757 57.7786 328.017 59.3536 329.952 59.3536C331.842 59.3536 333.597 57.7786 333.912 55.8886L334.227 53.9986L326.082 48.6886C324.102 47.3836 323.157 45.0436 323.562 42.5236C324.327 37.5286 329.052 33.4336 334.047 33.4336ZM355.589 33.4336C360.584 33.4336 364.004 37.5286 363.194 42.5236L362.879 44.5486H357.254L357.569 42.5236C357.884 40.5886 356.579 39.0586 354.689 39.0586C352.799 39.0586 350.999 40.5886 350.684 42.5236L350.549 43.3786L358.694 48.7336C360.674 49.9936 361.619 52.3786 361.214 54.8986L361.079 55.8886C360.269 60.8836 355.589 64.9336 350.594 64.9336C345.599 64.9336 342.179 60.8836 342.989 55.8886L343.079 55.1686H348.704L348.569 55.8886C348.299 57.7786 349.559 59.3536 351.494 59.3536C353.384 59.3536 355.139 57.7786 355.454 55.8886L355.769 53.9986L347.624 48.6886C345.644 47.3836 344.699 45.0436 345.104 42.5236C345.869 37.5286 350.594 33.4336 355.589 33.4336Z" fill="#003DCC"/>
</svg>
