<svg width="1558" height="610" viewBox="0 0 1558 610" fill="none" xmlns="http://www.w3.org/2000/svg">
<g clip-path="url(#clip0_88_941)">
<path d="M1539.1 -18.1966C1539.27 -18.1652 1539.43 -18.1954 1539.56 -18.2812C1539.68 -18.367 1539.76 -18.5011 1539.77 -18.6543C1539.78 -18.8074 1539.73 -18.9671 1539.62 -19.0983C1539.51 -19.2295 1539.36 -19.3214 1539.2 -19.3542C1539.2 -19.3542 1539.2 -19.3542 1539.2 -19.3542C1510.14 -25.1399 1479.88 -30.0263 1450.22 -33.8901C1331.25 -49.2515 1211.81 -50.9454 1096.13 -39.5912C688.777 -11.5646 324.61 248.895 266.839 636.458C261.623 663.478 257.608 689.783 254.369 717.861C254.352 718.013 254.4 718.174 254.505 718.308C254.609 718.442 254.76 718.538 254.925 718.575C255.09 718.612 255.255 718.587 255.384 718.506C255.514 718.424 255.596 718.293 255.614 718.141C255.614 718.141 255.614 718.141 255.614 718.141C258.943 690.11 263.042 663.856 268.337 636.894C327.417 250.201 690.468 -8.33889 1096.9 -36.4534C1212.32 -47.7806 1331.42 -46.519 1450.21 -32.0148C1479.83 -28.3649 1510.06 -23.7185 1539.1 -18.1966Z" fill="#CCDBFF"/>
<path d="M1519.28 -37.4122C1519.44 -37.3807 1519.61 -37.4109 1519.73 -37.4966C1519.86 -37.5823 1519.94 -37.7164 1519.95 -37.8696C1519.96 -38.0227 1519.91 -38.1824 1519.8 -38.3136C1519.69 -38.4449 1519.54 -38.5368 1519.37 -38.5697C1519.37 -38.5697 1519.37 -38.5697 1519.37 -38.5697C1490.09 -44.4119 1459.6 -49.3472 1429.71 -53.2501C1309.82 -68.7679 1189.46 -70.4942 1072.88 -59.0467C662.315 -30.8274 295.787 232.227 237.884 622.818C232.647 650.047 228.617 676.564 225.368 704.861C225.351 705.013 225.4 705.174 225.504 705.308C225.608 705.442 225.759 705.538 225.924 705.575C226.089 705.612 226.255 705.587 226.384 705.506C226.513 705.424 226.596 705.293 226.613 705.141C226.613 705.141 226.613 705.141 226.613 705.141C229.951 676.89 234.066 650.425 239.382 623.253C298.595 233.53 664.01 -27.6016 1073.66 -55.9089C1189.97 -67.3293 1309.99 -66.0355 1429.7 -51.3749C1459.55 -47.6858 1490.01 -42.9907 1519.28 -37.4122Z" fill="#CCDBFF"/>
<path d="M1567.93 -6.71432C1568.1 -6.68478 1568.26 -6.71695 1568.38 -6.80428C1568.51 -6.89162 1568.58 -7.02687 1568.59 -7.18038C1568.6 -7.3339 1568.55 -7.49321 1568.44 -7.62336C1568.33 -7.75352 1568.17 -7.84378 1568.01 -7.87479C1568.01 -7.87479 1568.01 -7.87479 1568.01 -7.87479C1539.38 -13.253 1509.59 -17.7692 1480.35 -21.3223C1363.22 -35.4317 1245.65 -36.5802 1131.8 -25.5272C732.438 2.78023 363.131 244.557 297.964 625.026C292.321 651.579 287.959 677.304 284.37 704.853C284.35 705.005 284.397 705.166 284.499 705.301C284.601 705.436 284.751 705.534 284.916 705.573C285.081 705.612 285.247 705.589 285.377 705.51C285.508 705.43 285.593 705.3 285.613 705.149C285.613 705.149 285.613 705.149 285.613 705.149C289.29 677.648 293.736 651.978 299.457 625.485C365.899 245.954 734.059 6.00493 1132.57 -22.389C1246.17 -33.4166 1363.41 -32.6983 1480.37 -19.4446C1509.56 -16.1051 1539.31 -11.8288 1567.93 -6.71432Z" fill="#CCDBFF"/>
<path d="M1600.59 6.43469C1600.75 6.46178 1600.91 6.42705 1601.04 6.33763C1601.16 6.24822 1601.23 6.11153 1601.24 5.95754C1601.25 5.80355 1601.19 5.64477 1601.08 5.51603C1600.97 5.38729 1600.81 5.29922 1600.65 5.27069C1600.65 5.27069 1600.65 5.27069 1600.65 5.27069C1571.36 0.216296 1541.23 -4.07587 1511.33 -7.51205C1392.04 -21.132 1272.69 -22.4097 1156.74 -10.6233C747.931 18.8886 387.395 279.428 316.612 662.988C310.509 689.839 305.602 715.957 301.371 743.842C301.348 743.993 301.392 744.155 301.491 744.291C301.591 744.428 301.74 744.528 301.904 744.57C302.068 744.612 302.235 744.592 302.368 744.515C302.5 744.438 302.588 744.31 302.611 744.159C302.611 744.159 302.611 744.159 302.611 744.159C306.93 716.322 311.92 690.257 318.101 663.465C390.167 280.765 749.634 22.1001 1157.53 -7.4866C1273.22 -19.2455 1392.23 -18.3991 1511.35 -5.63276C1541.22 -2.40965 1571.31 1.64344 1600.59 6.43469Z" fill="#CCDBFF"/>
<rect x="217.5" y="53.5" width="466" height="493" stroke="#FAC402" stroke-width="15"/>
</g>
<defs>
<clipPath id="clip0_88_941">
<rect width="1558" height="610" fill="white"/>
</clipPath>
</defs>
</svg>
