<svg width="756" height="960" viewBox="0 0 756 960" fill="none" xmlns="http://www.w3.org/2000/svg">
<path d="M681.654 733.845C681.653 734.006 681.715 734.161 681.828 734.276C681.94 734.391 682.093 734.456 682.254 734.457C682.414 734.459 682.569 734.396 682.684 734.283C682.799 734.17 682.865 734.015 682.869 733.854C682.869 733.854 682.869 733.854 682.869 733.854C683.204 718.163 682.74 701.844 681.621 686.017C677.022 622.215 662.363 559.106 638.021 500.001C559.155 283.302 315.984 171.569 95.8557 196.406C80.3555 197.472 64.5688 198.962 48.3502 200.906C48.1904 200.925 48.0442 201.007 47.9438 201.134C47.8434 201.261 47.797 201.422 47.8148 201.583C47.8326 201.744 47.9133 201.89 48.0389 201.991C48.1646 202.091 48.325 202.137 48.4849 202.119C48.4849 202.119 48.4849 202.119 48.4849 202.119C64.6938 200.267 80.4655 198.866 95.9452 197.886C315.986 174.442 556.554 285.957 635.029 501.262C659.23 560.033 674.237 622.664 679.684 686.178C681.013 701.933 681.719 718.192 681.654 733.845Z" fill="#CCDBFF"/>
<path d="M670.638 746.052C670.638 746.213 670.7 746.368 670.812 746.483C670.924 746.598 671.078 746.663 671.238 746.665C671.398 746.666 671.553 746.603 671.668 746.49C671.783 746.377 671.849 746.223 671.853 746.061C671.853 746.061 671.853 746.061 671.853 746.061C672.188 730.37 671.724 714.051 670.606 698.224C666.006 634.423 651.348 571.314 627.006 512.208C548.139 295.509 304.969 183.776 84.8401 208.613C69.3399 209.679 53.5532 211.17 37.3346 213.113C37.1748 213.132 37.0286 213.214 36.9282 213.341C36.8278 213.468 36.7814 213.63 36.7992 213.79C36.817 213.951 36.8976 214.097 37.0233 214.198C37.149 214.298 37.3094 214.344 37.4693 214.326C37.4693 214.326 37.4693 214.326 37.4693 214.326C53.6781 212.475 69.4498 211.074 84.9296 210.094C304.971 186.649 545.538 298.164 624.013 513.469C648.215 572.24 663.222 634.872 668.668 698.385C669.997 714.141 670.703 730.399 670.638 746.052Z" fill="#CCDBFF"/>
<path d="M664.019 761.984C664.018 762.146 664.081 762.301 664.193 762.416C664.305 762.531 664.458 762.596 664.619 762.597C664.779 762.598 664.934 762.535 665.049 762.422C665.164 762.309 665.23 762.155 665.234 761.994C665.234 761.994 665.234 761.994 665.234 761.994C665.569 746.303 665.105 729.984 663.986 714.157C659.387 650.355 644.729 587.246 620.387 528.14C541.52 311.442 298.349 199.709 78.2209 224.546C62.7207 225.612 46.9341 227.102 30.7155 229.045C30.5557 229.065 30.4095 229.147 30.309 229.273C30.2086 229.4 30.1622 229.562 30.1801 229.723C30.1979 229.883 30.2785 230.03 30.4042 230.13C30.5298 230.231 30.6902 230.277 30.8501 230.258C30.8501 230.258 30.8501 230.258 30.8501 230.258C47.059 228.407 62.8307 227.006 78.3105 226.026C298.352 202.582 538.919 314.097 617.394 529.402C641.596 588.173 656.603 650.804 662.049 714.317C663.378 730.073 664.084 746.331 664.019 761.984Z" fill="#CCDBFF"/>
<path d="M659.875 778.517C659.874 778.679 659.936 778.834 660.048 778.949C660.161 779.064 660.314 779.129 660.474 779.13C660.635 779.131 660.789 779.068 660.905 778.955C661.02 778.842 661.086 778.688 661.089 778.527C661.089 778.527 661.089 778.527 661.089 778.527C661.425 762.836 660.96 746.517 659.842 730.69C655.242 666.888 640.584 603.779 616.242 544.673C537.375 327.974 294.205 216.242 74.0764 241.079C58.5762 242.145 42.7895 243.635 26.571 245.578C26.4111 245.598 26.2649 245.679 26.1645 245.806C26.0641 245.933 26.0177 246.095 26.0355 246.255C26.0534 246.416 26.134 246.563 26.2596 246.663C26.3853 246.764 26.5457 246.81 26.7056 246.791C26.7056 246.791 26.7056 246.791 26.7056 246.791C42.9145 244.94 58.6862 243.539 74.1659 242.559C294.207 219.115 534.774 330.63 613.25 545.935C637.451 604.706 652.458 667.337 657.904 730.85C659.234 746.606 659.94 762.864 659.875 778.517Z" fill="#CCDBFF"/>
</svg>
