<svg width="1728" height="824" viewBox="0 0 1728 824" fill="none" xmlns="http://www.w3.org/2000/svg">
<g clip-path="url(#clip0_92_1157)">
<g clip-path="url(#clip1_92_1157)">
<g filter="url(#filter0_d_92_1157)">
<path d="M1218 427.469C1212.16 427.469 1206.45 429.201 1201.59 432.446C1196.74 435.691 1192.95 440.303 1190.72 445.699C1188.48 451.095 1187.9 457.033 1189.04 462.761C1190.17 468.49 1192.99 473.752 1197.12 477.882C1201.25 482.012 1206.51 484.824 1212.24 485.964C1217.97 487.103 1223.9 486.518 1229.3 484.283C1234.7 482.048 1239.31 478.263 1242.55 473.407C1245.8 468.55 1247.53 462.841 1247.53 457C1247.52 449.17 1244.41 441.664 1238.87 436.128C1233.33 430.592 1225.83 427.477 1218 427.469ZM1218 479.969C1213.46 479.969 1209.02 478.622 1205.24 476.098C1201.46 473.574 1198.52 469.987 1196.78 465.79C1195.04 461.593 1194.59 456.975 1195.47 452.519C1196.36 448.064 1198.55 443.971 1201.76 440.759C1204.97 437.546 1209.06 435.359 1213.52 434.473C1217.97 433.586 1222.59 434.041 1226.79 435.78C1230.99 437.518 1234.57 440.462 1237.1 444.239C1239.62 448.016 1240.97 452.457 1240.97 457C1240.96 463.09 1238.54 468.928 1234.23 473.234C1229.93 477.54 1224.09 479.962 1218 479.969ZM1226.88 454.679C1227.19 454.983 1227.43 455.346 1227.6 455.744C1227.76 456.143 1227.85 456.571 1227.85 457.003C1227.85 457.435 1227.76 457.862 1227.6 458.261C1227.43 458.66 1227.19 459.022 1226.88 459.327L1215.95 470.264C1215.33 470.881 1214.49 471.227 1213.62 471.227C1212.75 471.227 1211.91 470.881 1211.3 470.264C1210.68 469.648 1210.33 468.812 1210.33 467.94C1210.33 467.068 1210.68 466.232 1211.3 465.616L1219.91 457L1211.3 448.384C1210.69 447.768 1210.34 446.932 1210.34 446.06C1210.34 445.188 1210.69 444.352 1211.3 443.736C1211.92 443.119 1212.76 442.773 1213.63 442.773C1214.5 442.773 1215.33 443.119 1215.95 443.736L1226.88 454.679Z" fill="#F9C300"/>
</g>
</g>
<g clip-path="url(#clip2_92_1157)">
<g filter="url(#filter1_d_92_1157)">
<path d="M298.999 427.469C293.158 427.469 287.449 429.201 282.592 432.446C277.736 435.691 273.951 440.303 271.716 445.699C269.481 451.095 268.896 457.033 270.035 462.761C271.175 468.49 273.987 473.752 278.117 477.882C282.247 482.012 287.509 484.824 293.238 485.964C298.966 487.103 304.904 486.518 310.3 484.283C315.696 482.048 320.308 478.263 323.553 473.407C326.798 468.55 328.53 462.841 328.53 457C328.522 449.17 325.407 441.664 319.871 436.128C314.335 430.592 306.829 427.477 298.999 427.469ZM298.999 479.969C294.456 479.969 290.015 478.622 286.238 476.098C282.461 473.574 279.517 469.987 277.779 465.79C276.04 461.593 275.585 456.975 276.472 452.519C277.358 448.064 279.545 443.971 282.758 440.759C285.97 437.546 290.063 435.359 294.518 434.473C298.974 433.586 303.592 434.041 307.789 435.78C311.986 437.518 315.573 440.462 318.097 444.239C320.621 448.016 321.968 452.457 321.968 457C321.961 463.09 319.539 468.928 315.233 473.234C310.927 477.54 305.089 479.962 298.999 479.969ZM305.696 448.384L297.085 457L305.704 465.616C306.32 466.232 306.666 467.068 306.666 467.94C306.666 468.812 306.32 469.648 305.704 470.264C305.087 470.881 304.251 471.227 303.38 471.227C302.508 471.227 301.672 470.881 301.055 470.264L290.118 459.327C289.812 459.022 289.569 458.66 289.404 458.261C289.238 457.862 289.153 457.435 289.153 457.003C289.153 456.571 289.238 456.143 289.404 455.744C289.569 455.346 289.812 454.983 290.118 454.679L301.055 443.741C301.361 443.436 301.723 443.194 302.122 443.028C302.52 442.863 302.948 442.778 303.38 442.778C303.811 442.778 304.239 442.863 304.637 443.028C305.036 443.194 305.399 443.436 305.704 443.741C306.009 444.046 306.251 444.409 306.416 444.807C306.581 445.206 306.666 445.634 306.666 446.065C306.666 446.497 306.581 446.924 306.416 447.323C306.251 447.722 306.009 448.084 305.704 448.389L305.696 448.384Z" fill="#F9C300"/>
</g>
</g>
<path d="M78.0598 1082.85C78.3308 1082.95 78.6018 1083.05 78.8729 1083.15C88.9368 1074.92 98.0804 1066.01 106.163 1057C138.414 1020.77 157.204 980.88 165.486 939.961C195.988 795.65 82.0491 642.328 -101.079 521.608C-113.97 512.972 -127.201 504.439 -141.092 495.81C-141.323 495.906 -141.554 496.002 -141.784 496.098C-127.954 504.742 -114.783 513.289 -101.952 521.937C80.3365 642.844 193.389 795.784 162.99 939.679C154.729 980.483 136.338 1020.29 104.783 1056.61C96.8732 1065.64 87.9207 1074.58 78.0598 1082.85Z" fill="#CCDBFF"/>
<path d="M110.75 1055.79C111.008 1055.91 111.265 1056.03 111.523 1056.15C122.093 1048.66 132.153 1040.33 141.037 1032.06C177.073 998.28 201.446 960.436 216.286 920.506C270.585 780.376 186.188 617.357 17.4815 485.116C5.64823 475.635 -6.44817 466.339 -19.2741 456.872C-19.509 456.957 -19.744 457.043 -19.9789 457.128C-7.21442 466.607 4.82048 475.914 16.5921 485.402C184.424 617.774 267.975 780.266 213.858 920C199.058 959.818 175.088 997.622 139.721 1031.55C131.004 1039.86 121.127 1048.24 110.75 1055.79Z" fill="#CCDBFF"/>
<path d="M95.5101 1059.7C95.7791 1059.8 96.0481 1059.9 96.317 1060C106.721 1051.76 116.378 1042.77 124.878 1033.8C159.1 997.416 180.31 957.496 191.127 916.252C231.042 771.073 123.797 613.756 -62.0524 491.05C-75.1183 482.253 -88.4847 473.612 -102.578 464.857C-102.808 464.953 -103.039 465.049 -103.27 465.145C-89.238 473.915 -75.9323 482.569 -62.9272 491.378C122.066 614.264 228.422 771.158 188.64 915.932C177.85 957.063 157.042 996.913 123.51 1033.39C115.181 1042.39 105.713 1051.42 95.5101 1059.7Z" fill="#CCDBFF"/>
<path d="M1251.11 -234.67C1250.82 -234.612 1250.53 -234.554 1250.24 -234.496C1245.56 -219.365 1243.34 -204.82 1242.63 -190.537C1240.36 -133.541 1260.6 -84.2825 1292.64 -41.0113C1408.19 110.502 1663.5 180.655 1948.61 204.938C1968.75 206.645 1989.44 208.156 2010.68 209.459C2010.84 209.269 2011 209.08 2011.16 208.89C1989.97 207.545 1969.33 205.994 1949.23 204.248C1664.72 179.428 1410.18 109.055 1294.9 -42.1302C1262.93 -85.3093 1242.43 -134.284 1244.06 -190.953C1244.61 -205.154 1246.65 -219.617 1251.11 -234.67Z" fill="#CCDBFF"/>
<path d="M1238.61 -193.693C1238.32 -193.657 1238.03 -193.621 1237.73 -193.585C1231.61 -179.028 1227.63 -164.763 1225.03 -150.572C1215.15 -94.3931 1226.43 -42.9182 1250.15 3.17714C1335.45 165.633 1572.98 256.138 1849.48 296.268C1868.98 299.123 1889.04 301.793 1909.69 304.27C1909.86 304.09 1910.04 303.91 1910.21 303.73C1889.61 301.214 1869.59 298.506 1850.14 295.616C1574.29 254.982 1337.6 164.334 1252.5 2.24978C1228.84 -43.7431 1217.26 -94.955 1226.47 -150.868C1228.91 -164.993 1232.7 -179.193 1238.61 -193.693Z" fill="#CCDBFF"/>
<path d="M1252.1 -204.651C1251.8 -204.596 1251.51 -204.541 1251.22 -204.486C1246.11 -189.156 1243.31 -174.33 1241.99 -159.711C1237.22 -101.64 1254.59 -50.4644 1284.2 -5.48314C1390.81 152.529 1644.84 227.596 1932.52 252.27C1952.83 254.02 1973.7 255.559 1995.14 256.875C1995.3 256.685 1995.46 256.496 1995.63 256.306C1974.23 254.948 1953.41 253.369 1933.14 251.581C1646.07 226.367 1392.84 151.095 1286.48 -6.57202C1256.93 -51.4573 1239.29 -102.351 1243.41 -160.107C1244.58 -174.647 1247.19 -189.395 1252.1 -204.651Z" fill="#CCDBFF"/>
</g>
<defs>
<filter id="filter0_d_92_1157" x="1184.47" y="427.469" width="67.0625" height="67.0625" filterUnits="userSpaceOnUse" color-interpolation-filters="sRGB">
<feFlood flood-opacity="0" result="BackgroundImageFix"/>
<feColorMatrix in="SourceAlpha" type="matrix" values="0 0 0 0 0 0 0 0 0 0 0 0 0 0 0 0 0 0 127 0" result="hardAlpha"/>
<feOffset dy="4"/>
<feGaussianBlur stdDeviation="2"/>
<feComposite in2="hardAlpha" operator="out"/>
<feColorMatrix type="matrix" values="0 0 0 0 0 0 0 0 0 0 0 0 0 0 0 0 0 0 0.25 0"/>
<feBlend mode="normal" in2="BackgroundImageFix" result="effect1_dropShadow_92_1157"/>
<feBlend mode="normal" in="SourceGraphic" in2="effect1_dropShadow_92_1157" result="shape"/>
</filter>
<filter id="filter1_d_92_1157" x="265.468" y="427.469" width="67.0625" height="67.0625" filterUnits="userSpaceOnUse" color-interpolation-filters="sRGB">
<feFlood flood-opacity="0" result="BackgroundImageFix"/>
<feColorMatrix in="SourceAlpha" type="matrix" values="0 0 0 0 0 0 0 0 0 0 0 0 0 0 0 0 0 0 127 0" result="hardAlpha"/>
<feOffset dy="4"/>
<feGaussianBlur stdDeviation="2"/>
<feComposite in2="hardAlpha" operator="out"/>
<feColorMatrix type="matrix" values="0 0 0 0 0 0 0 0 0 0 0 0 0 0 0 0 0 0 0.25 0"/>
<feBlend mode="normal" in2="BackgroundImageFix" result="effect1_dropShadow_92_1157"/>
<feBlend mode="normal" in="SourceGraphic" in2="effect1_dropShadow_92_1157" result="shape"/>
</filter>
<clipPath id="clip0_92_1157">
<rect width="1728" height="824" fill="white"/>
</clipPath>
<clipPath id="clip1_92_1157">
<rect width="70" height="70" fill="white" transform="translate(1183 422)"/>
</clipPath>
<clipPath id="clip2_92_1157">
<rect width="70" height="70" fill="white" transform="translate(263.999 422)"/>
</clipPath>
</defs>
</svg>
