<svg width="1508" height="567" viewBox="0 0 1508 567" fill="none" xmlns="http://www.w3.org/2000/svg">
<g clip-path="url(#clip0_108_282)">
<rect width="1508" height="567" fill="white"/>
<path d="M1132.43 -273.478C1132.43 -273.639 1132.36 -273.79 1132.24 -273.899C1132.12 -274.008 1131.96 -274.064 1131.8 -274.057C1131.64 -274.05 1131.49 -273.978 1131.38 -273.859C1131.27 -273.74 1131.22 -273.583 1131.22 -273.421C1131.22 -273.421 1131.22 -273.421 1131.22 -273.421C1131.73 -257.735 1133.08 -241.465 1135.05 -225.721C1143.09 -162.261 1161.13 -100.036 1188.63 -42.3311C1279.09 169.792 1527.94 268.229 1746.4 231.54C1761.82 229.639 1777.51 227.298 1793.6 224.482C1793.75 224.454 1793.9 224.364 1793.99 224.232C1794.08 224.1 1794.12 223.936 1794.09 223.777C1794.07 223.617 1793.98 223.475 1793.85 223.381C1793.72 223.288 1793.55 223.251 1793.4 223.278C1793.4 223.278 1793.4 223.278 1793.4 223.278C1777.31 226.002 1761.64 228.252 1746.23 230.067C1527.78 265.361 1281.54 167 1191.55 -43.7523C1164.21 -101.131 1145.84 -162.86 1136.98 -225.987C1134.8 -241.647 1133.21 -257.844 1132.43 -273.478Z" fill="#CCDBFF"/>
<path d="M1142.78 -286.262C1142.77 -286.423 1142.7 -286.575 1142.58 -286.683C1142.46 -286.792 1142.3 -286.849 1142.14 -286.841C1141.98 -286.834 1141.83 -286.763 1141.72 -286.644C1141.61 -286.524 1141.56 -286.367 1141.56 -286.206C1141.56 -286.206 1141.56 -286.206 1141.56 -286.206C1142.07 -270.519 1143.42 -254.249 1145.39 -238.506C1153.43 -175.046 1171.47 -112.82 1198.97 -55.1155C1289.43 157.008 1538.28 255.445 1756.74 218.756C1772.16 216.854 1787.85 214.514 1803.94 211.697C1804.1 211.669 1804.24 211.58 1804.33 211.448C1804.42 211.315 1804.46 211.152 1804.43 210.992C1804.41 210.833 1804.32 210.691 1804.19 210.597C1804.06 210.504 1803.9 210.466 1803.74 210.493C1803.74 210.493 1803.74 210.493 1803.74 210.493C1787.65 213.217 1771.98 215.468 1756.57 217.283C1538.12 252.576 1291.88 154.216 1201.89 -56.5366C1174.55 -113.915 1156.19 -175.644 1147.32 -238.771C1145.14 -254.432 1143.56 -270.628 1142.78 -286.262Z" fill="#CCDBFF"/>
<path d="M1148.52 -302.529C1148.52 -302.69 1148.45 -302.841 1148.33 -302.95C1148.21 -303.059 1148.05 -303.115 1147.89 -303.108C1147.73 -303.101 1147.58 -303.029 1147.47 -302.91C1147.36 -302.791 1147.31 -302.634 1147.31 -302.472C1147.31 -302.472 1147.31 -302.472 1147.31 -302.472C1147.82 -286.786 1149.17 -270.516 1151.14 -254.772C1159.18 -191.312 1177.22 -129.087 1204.72 -71.3821C1295.18 140.741 1544.03 239.178 1762.49 202.489C1777.91 200.588 1793.6 198.247 1809.69 195.431C1809.84 195.403 1809.99 195.313 1810.08 195.181C1810.17 195.049 1810.21 194.885 1810.18 194.726C1810.16 194.566 1810.07 194.424 1809.94 194.331C1809.81 194.237 1809.64 194.2 1809.49 194.227C1809.49 194.227 1809.49 194.227 1809.49 194.227C1793.4 196.951 1777.73 199.201 1762.32 201.016C1543.87 236.31 1297.63 137.949 1207.64 -72.8032C1180.3 -130.182 1161.93 -191.911 1153.07 -255.038C1150.89 -270.698 1149.3 -286.895 1148.52 -302.529Z" fill="#CCDBFF"/>
<path d="M1151.77 -319.261C1151.76 -319.422 1151.69 -319.574 1151.57 -319.682C1151.45 -319.791 1151.3 -319.848 1151.14 -319.841C1150.98 -319.833 1150.83 -319.762 1150.72 -319.643C1150.61 -319.524 1150.55 -319.366 1150.56 -319.205C1150.56 -319.205 1150.56 -319.205 1150.56 -319.205C1151.07 -303.518 1152.41 -287.248 1154.39 -271.505C1162.42 -208.045 1180.47 -145.82 1207.97 -88.1146C1298.42 124.009 1547.27 222.446 1765.74 185.757C1781.16 183.855 1796.84 181.515 1812.93 178.698C1813.09 178.67 1813.23 178.581 1813.32 178.448C1813.42 178.316 1813.46 178.152 1813.43 177.993C1813.4 177.834 1813.31 177.691 1813.18 177.598C1813.05 177.504 1812.89 177.467 1812.73 177.494C1812.73 177.494 1812.73 177.494 1812.73 177.494C1796.65 180.218 1780.97 182.469 1765.57 184.283C1547.11 219.577 1300.88 121.217 1210.89 -89.5358C1183.55 -146.914 1165.18 -208.644 1156.31 -271.77C1154.13 -287.431 1152.55 -303.627 1151.77 -319.261Z" fill="#CCDBFF"/>
<rect x="447" y="221" width="286" height="254" fill="#F9C300"/>
</g>
<defs>
<clipPath id="clip0_108_282">
<rect width="1508" height="567" fill="white"/>
</clipPath>
</defs>
</svg>
