<svg width="1518" height="610" viewBox="0 0 1518 610" fill="none" xmlns="http://www.w3.org/2000/svg">
<g clip-path="url(#clip0_108_224)">
<path d="M972.435 -237.478C972.427 -237.639 972.356 -237.79 972.238 -237.899C972.12 -238.008 971.963 -238.065 971.803 -238.057C971.643 -238.05 971.492 -237.979 971.383 -237.859C971.274 -237.74 971.216 -237.583 971.222 -237.421C971.222 -237.421 971.222 -237.421 971.222 -237.421C971.734 -221.735 973.079 -205.465 975.051 -189.721C983.089 -126.261 1001.13 -64.0362 1028.63 -6.33118C1119.09 205.792 1367.94 304.229 1586.4 267.54C1601.82 265.639 1617.51 263.298 1633.6 260.481C1633.75 260.454 1633.9 260.364 1633.99 260.232C1634.08 260.1 1634.12 259.936 1634.09 259.776C1634.07 259.617 1633.98 259.475 1633.85 259.381C1633.72 259.288 1633.55 259.251 1633.4 259.277C1633.4 259.277 1633.4 259.277 1633.4 259.277C1617.31 262.001 1601.64 264.252 1586.23 266.067C1367.78 301.361 1121.54 203 1031.55 -7.75232C1004.21 -65.1308 985.845 -126.86 976.977 -189.987C974.798 -205.648 973.215 -221.844 972.435 -237.478Z" fill="#CCDBFF"/>
<path d="M982.775 -250.262C982.767 -250.423 982.696 -250.575 982.578 -250.683C982.459 -250.792 982.303 -250.849 982.143 -250.842C981.983 -250.834 981.832 -250.763 981.723 -250.644C981.614 -250.525 981.556 -250.367 981.561 -250.206C981.561 -250.206 981.561 -250.206 981.561 -250.206C982.074 -234.519 983.419 -218.249 985.39 -202.506C993.429 -139.046 1011.47 -76.8206 1038.97 -19.1156C1129.43 193.008 1378.28 291.445 1596.74 254.756C1612.16 252.854 1627.85 250.514 1643.94 247.697C1644.09 247.669 1644.24 247.58 1644.33 247.447C1644.42 247.315 1644.46 247.151 1644.43 246.992C1644.41 246.833 1644.32 246.691 1644.19 246.597C1644.06 246.503 1643.89 246.466 1643.74 246.493C1643.74 246.493 1643.74 246.493 1643.74 246.493C1627.65 249.217 1611.98 251.468 1596.57 253.282C1378.12 288.576 1131.88 190.216 1041.89 -20.5367C1014.55 -77.9152 996.185 -139.644 987.317 -202.771C985.138 -218.432 983.555 -234.628 982.775 -250.262Z" fill="#CCDBFF"/>
<path d="M988.524 -266.529C988.516 -266.69 988.445 -266.841 988.327 -266.95C988.209 -267.059 988.052 -267.115 987.892 -267.108C987.732 -267.101 987.581 -267.029 987.472 -266.91C987.363 -266.791 987.305 -266.634 987.31 -266.472C987.31 -266.472 987.31 -266.472 987.31 -266.472C987.823 -250.786 989.168 -234.516 991.139 -218.772C999.178 -155.312 1017.22 -93.0871 1044.72 -35.3821C1135.18 176.741 1384.03 275.178 1602.49 238.489C1617.91 236.588 1633.6 234.247 1649.69 231.431C1649.84 231.403 1649.99 231.313 1650.08 231.181C1650.17 231.049 1650.21 230.885 1650.18 230.726C1650.16 230.566 1650.07 230.424 1649.94 230.331C1649.81 230.237 1649.64 230.2 1649.49 230.227C1649.49 230.227 1649.49 230.227 1649.49 230.227C1633.4 232.951 1617.73 235.201 1602.32 237.016C1383.87 272.31 1137.63 173.949 1047.64 -36.8032C1020.3 -94.1817 1001.93 -155.911 993.066 -219.038C990.887 -234.698 989.304 -250.895 988.524 -266.529Z" fill="#CCDBFF"/>
<path d="M991.769 -283.261C991.761 -283.422 991.69 -283.574 991.572 -283.682C991.454 -283.791 991.297 -283.848 991.137 -283.841C990.977 -283.833 990.826 -283.762 990.717 -283.643C990.608 -283.524 990.55 -283.366 990.556 -283.205C990.556 -283.205 990.556 -283.205 990.556 -283.205C991.068 -267.518 992.413 -251.248 994.385 -235.505C1002.42 -172.045 1020.47 -109.82 1047.97 -52.1146C1138.42 160.009 1387.27 258.446 1605.74 221.757C1621.16 219.855 1636.84 217.515 1652.93 214.698C1653.09 214.67 1653.23 214.581 1653.32 214.448C1653.42 214.316 1653.45 214.152 1653.43 213.993C1653.4 213.834 1653.31 213.691 1653.18 213.598C1653.05 213.504 1652.89 213.467 1652.73 213.494C1652.73 213.494 1652.73 213.494 1652.73 213.494C1636.64 216.218 1620.97 218.469 1605.57 220.283C1387.11 255.577 1140.88 157.217 1050.89 -53.5358C1023.55 -110.914 1005.18 -172.644 996.311 -235.77C994.132 -251.431 992.549 -267.627 991.769 -283.261Z" fill="#CCDBFF"/>
</g>
<defs>
<clipPath id="clip0_108_224">
<rect width="1518" height="610" fill="white"/>
</clipPath>
</defs>
</svg>
