<svg width="1558" height="610" viewBox="0 0 1558 610" fill="none" xmlns="http://www.w3.org/2000/svg">
<g clip-path="url(#clip0_88_941)">
<path d="M1551.11 -18.1968C1551.27 -18.1654 1551.43 -18.1957 1551.56 -18.2814C1551.68 -18.3672 1551.76 -18.5014 1551.77 -18.6545C1551.79 -18.8077 1551.73 -18.9673 1551.63 -19.0985C1551.52 -19.2297 1551.36 -19.3216 1551.2 -19.3545C1551.2 -19.3545 1551.2 -19.3545 1551.2 -19.3545C1522.14 -25.1401 1491.88 -30.0266 1462.22 -33.8904C1343.25 -49.2517 1223.81 -50.9457 1108.13 -39.5914C700.779 -11.5649 336.612 248.894 278.842 636.458C273.625 663.477 269.611 689.783 266.372 717.861C266.354 718.013 266.403 718.174 266.507 718.308C266.611 718.442 266.762 718.538 266.927 718.575C267.092 718.612 267.257 718.587 267.387 718.506C267.516 718.424 267.599 718.293 267.617 718.141C267.617 718.141 267.617 718.141 267.617 718.141C270.945 690.11 275.044 663.855 280.339 636.894C339.419 250.201 702.471 -8.33914 1108.91 -36.4537C1224.32 -47.7808 1343.42 -46.5192 1462.22 -32.015C1491.84 -28.3651 1522.06 -23.7187 1551.11 -18.1968Z" fill="#CCDBFF"/>
<path d="M1531.28 -37.4125C1531.45 -37.381 1531.61 -37.4111 1531.73 -37.4969C1531.86 -37.5826 1531.94 -37.7167 1531.95 -37.8698C1531.96 -38.0229 1531.91 -38.1826 1531.8 -38.3139C1531.69 -38.4451 1531.54 -38.5371 1531.37 -38.57C1531.37 -38.57 1531.37 -38.57 1531.37 -38.57C1502.1 -44.4122 1471.6 -49.3474 1441.71 -53.2504C1321.83 -68.7681 1201.46 -70.4944 1084.89 -59.0469C674.318 -30.8276 307.789 232.227 249.886 622.818C244.65 650.047 240.62 676.564 237.371 704.861C237.353 705.013 237.402 705.174 237.506 705.308C237.611 705.442 237.762 705.538 237.927 705.575C238.092 705.612 238.257 705.587 238.386 705.505C238.515 705.424 238.598 705.293 238.616 705.14C238.616 705.14 238.616 705.14 238.616 705.14C241.954 676.89 246.069 650.424 251.384 623.253C310.597 233.53 676.013 -27.6019 1085.66 -55.9092C1201.97 -67.3295 1321.99 -66.0357 1441.71 -51.3751C1471.55 -47.686 1502.01 -42.9909 1531.28 -37.4125Z" fill="#CCDBFF"/>
<path d="M1579.93 -6.71457C1580.1 -6.68502 1580.26 -6.71719 1580.39 -6.80453C1580.51 -6.89186 1580.59 -7.02711 1580.6 -7.18063C1580.61 -7.33414 1580.55 -7.49345 1580.44 -7.62361C1580.33 -7.75377 1580.18 -7.84402 1580.01 -7.87503C1580.01 -7.87503 1580.01 -7.87503 1580.01 -7.87503C1551.38 -13.2533 1521.59 -17.7695 1492.35 -21.3225C1375.22 -35.4319 1257.65 -36.5804 1143.8 -25.5274C744.441 2.77998 375.134 244.557 309.967 625.025C304.324 651.579 299.961 677.304 296.372 704.853C296.353 705.005 296.399 705.166 296.501 705.301C296.604 705.436 296.754 705.534 296.919 705.573C297.083 705.612 297.249 705.589 297.38 705.51C297.51 705.43 297.595 705.3 297.615 705.148C297.615 705.148 297.615 705.148 297.615 705.148C301.293 677.648 305.739 651.977 311.459 625.485C377.901 245.953 746.061 6.00468 1144.57 -22.3893C1258.17 -33.4169 1375.41 -32.6985 1492.37 -19.4448C1521.56 -16.1054 1551.32 -11.829 1579.93 -6.71457Z" fill="#CCDBFF"/>
<path d="M1612.59 6.43445C1612.75 6.46153 1612.92 6.42681 1613.04 6.33739C1613.16 6.24797 1613.23 6.11128 1613.24 5.9573C1613.25 5.80331 1613.19 5.64453 1613.08 5.51579C1612.97 5.38704 1612.81 5.29898 1612.65 5.27045C1612.65 5.27045 1612.65 5.27045 1612.65 5.27045C1583.36 0.216052 1553.23 -4.07611 1523.33 -7.5123C1404.04 -21.1322 1284.69 -22.4099 1168.74 -10.6235C759.933 18.8883 399.397 279.428 328.615 662.988C322.511 689.839 317.604 715.957 313.374 743.842C313.351 743.993 313.394 744.154 313.494 744.291C313.594 744.427 313.742 744.528 313.907 744.57C314.071 744.612 314.238 744.592 314.37 744.515C314.503 744.438 314.59 744.31 314.614 744.159C314.614 744.159 314.614 744.159 314.614 744.159C318.932 716.322 323.923 690.256 330.104 663.464C402.169 280.765 761.636 22.0999 1169.53 -7.48685C1285.22 -19.2457 1404.24 -18.3994 1523.36 -5.63301C1553.22 -2.40989 1583.31 1.6432 1612.59 6.43445Z" fill="#CCDBFF"/>
<rect x="229.5" y="53.5" width="466" height="493" stroke="#FAC402" stroke-width="15"/>
</g>
<defs>
<clipPath id="clip0_88_941">
<rect width="1558" height="610" fill="white"/>
</clipPath>
</defs>
</svg>
