<svg width="1518" height="610" viewBox="0 0 1518 610" fill="none" xmlns="http://www.w3.org/2000/svg">
<g clip-path="url(#clip0_108_224)">
<path d="M1037.43 -262.478C1037.43 -262.639 1037.36 -262.79 1037.24 -262.899C1037.12 -263.008 1036.96 -263.065 1036.8 -263.057C1036.64 -263.05 1036.49 -262.979 1036.38 -262.859C1036.27 -262.74 1036.22 -262.583 1036.22 -262.421C1036.22 -262.421 1036.22 -262.421 1036.22 -262.421C1036.73 -246.735 1038.08 -230.465 1040.05 -214.721C1048.09 -151.261 1066.13 -89.0362 1093.63 -31.3312C1184.09 180.792 1432.94 279.229 1651.4 242.54C1666.82 240.639 1682.51 238.298 1698.6 235.481C1698.75 235.454 1698.9 235.364 1698.99 235.232C1699.08 235.1 1699.12 234.936 1699.09 234.776C1699.07 234.617 1698.98 234.475 1698.85 234.381C1698.72 234.288 1698.55 234.251 1698.4 234.277C1698.4 234.277 1698.4 234.277 1698.4 234.277C1682.31 237.001 1666.64 239.252 1651.23 241.067C1432.78 276.361 1186.54 178 1096.55 -32.7523C1069.21 -90.1308 1050.85 -151.86 1041.98 -214.987C1039.8 -230.648 1038.22 -246.844 1037.43 -262.478Z" fill="#CCDBFF"/>
<path d="M1047.77 -275.262C1047.77 -275.423 1047.7 -275.575 1047.58 -275.683C1047.46 -275.792 1047.3 -275.849 1047.14 -275.842C1046.98 -275.834 1046.83 -275.763 1046.72 -275.644C1046.61 -275.525 1046.56 -275.367 1046.56 -275.206C1046.56 -275.206 1046.56 -275.206 1046.56 -275.206C1047.07 -259.519 1048.42 -243.249 1050.39 -227.506C1058.43 -164.046 1076.47 -101.821 1103.97 -44.1156C1194.43 168.008 1443.28 266.445 1661.74 229.756C1677.16 227.854 1692.85 225.514 1708.94 222.697C1709.09 222.669 1709.24 222.58 1709.33 222.447C1709.42 222.315 1709.46 222.151 1709.43 221.992C1709.41 221.833 1709.32 221.691 1709.19 221.597C1709.06 221.503 1708.89 221.466 1708.74 221.493C1708.74 221.493 1708.74 221.493 1708.74 221.493C1692.65 224.217 1676.98 226.468 1661.57 228.282C1443.12 263.576 1196.88 165.216 1106.89 -45.5367C1079.55 -102.915 1061.18 -164.644 1052.32 -227.771C1050.14 -243.432 1048.56 -259.628 1047.77 -275.262Z" fill="#CCDBFF"/>
<path d="M1053.52 -291.529C1053.52 -291.69 1053.45 -291.841 1053.33 -291.95C1053.21 -292.059 1053.05 -292.115 1052.89 -292.108C1052.73 -292.101 1052.58 -292.029 1052.47 -291.91C1052.36 -291.791 1052.31 -291.634 1052.31 -291.472C1052.31 -291.472 1052.31 -291.472 1052.31 -291.472C1052.82 -275.786 1054.17 -259.516 1056.14 -243.772C1064.18 -180.312 1082.22 -118.087 1109.72 -60.3821C1200.18 151.741 1449.03 250.178 1667.49 213.489C1682.91 211.588 1698.6 209.247 1714.69 206.431C1714.84 206.403 1714.99 206.313 1715.08 206.181C1715.17 206.049 1715.21 205.885 1715.18 205.726C1715.16 205.566 1715.07 205.424 1714.94 205.331C1714.81 205.237 1714.64 205.2 1714.49 205.227C1714.49 205.227 1714.49 205.227 1714.49 205.227C1698.4 207.951 1682.73 210.201 1667.32 212.016C1448.87 247.31 1202.63 148.949 1112.64 -61.8032C1085.3 -119.182 1066.93 -180.911 1058.07 -244.038C1055.89 -259.698 1054.3 -275.895 1053.52 -291.529Z" fill="#CCDBFF"/>
<path d="M1056.77 -308.261C1056.76 -308.422 1056.69 -308.574 1056.57 -308.682C1056.45 -308.791 1056.3 -308.848 1056.14 -308.841C1055.98 -308.833 1055.83 -308.762 1055.72 -308.643C1055.61 -308.524 1055.55 -308.366 1055.56 -308.205C1055.56 -308.205 1055.56 -308.205 1055.56 -308.205C1056.07 -292.518 1057.41 -276.248 1059.38 -260.505C1067.42 -197.045 1085.47 -134.82 1112.97 -77.1146C1203.42 135.009 1452.27 233.446 1670.74 196.757C1686.16 194.855 1701.84 192.515 1717.93 189.698C1718.09 189.67 1718.23 189.581 1718.32 189.448C1718.42 189.316 1718.45 189.152 1718.43 188.993C1718.4 188.834 1718.31 188.691 1718.18 188.598C1718.05 188.504 1717.89 188.467 1717.73 188.494C1717.73 188.494 1717.73 188.494 1717.73 188.494C1701.64 191.218 1685.97 193.469 1670.57 195.283C1452.11 230.577 1205.88 132.217 1115.89 -78.5358C1088.55 -135.914 1070.18 -197.644 1061.31 -260.77C1059.13 -276.431 1057.55 -292.627 1056.77 -308.261Z" fill="#CCDBFF"/>
</g>
<defs>
<clipPath id="clip0_108_224">
<rect width="1518" height="610" fill="white"/>
</clipPath>
</defs>
</svg>
