<svg width="1508" height="567" viewBox="0 0 1508 567" fill="none" xmlns="http://www.w3.org/2000/svg">
<g clip-path="url(#clip0_108_282)">
<rect width="1508" height="567" fill="white"/>
<path d="M1127.43 -261.478C1127.42 -261.639 1127.35 -261.79 1127.23 -261.899C1127.11 -262.008 1126.96 -262.064 1126.8 -262.057C1126.64 -262.05 1126.49 -261.978 1126.38 -261.859C1126.27 -261.74 1126.21 -261.583 1126.22 -261.421C1126.22 -261.421 1126.22 -261.421 1126.22 -261.421C1126.73 -245.735 1128.07 -229.465 1130.04 -213.721C1138.08 -150.261 1156.13 -88.0361 1183.63 -30.3311C1274.08 181.792 1522.93 280.229 1741.4 243.54C1756.82 241.639 1772.5 239.298 1788.59 236.482C1788.75 236.454 1788.89 236.364 1788.98 236.232C1789.08 236.1 1789.11 235.936 1789.09 235.777C1789.06 235.617 1788.97 235.475 1788.84 235.381C1788.71 235.288 1788.55 235.251 1788.39 235.278C1788.39 235.278 1788.39 235.278 1788.39 235.278C1772.3 238.002 1756.63 240.252 1741.23 242.067C1522.77 277.361 1276.53 179 1186.55 -31.7523C1159.21 -89.1307 1140.84 -150.86 1131.97 -213.987C1129.79 -229.647 1128.21 -245.844 1127.43 -261.478Z" fill="#CCDBFF"/>
<path d="M1137.77 -274.262C1137.76 -274.423 1137.69 -274.575 1137.57 -274.683C1137.45 -274.792 1137.3 -274.849 1137.14 -274.841C1136.98 -274.834 1136.83 -274.763 1136.72 -274.644C1136.61 -274.524 1136.55 -274.367 1136.56 -274.206C1136.56 -274.206 1136.56 -274.206 1136.56 -274.206C1137.07 -258.519 1138.41 -242.249 1140.39 -226.506C1148.42 -163.046 1166.47 -100.82 1193.97 -43.1155C1284.42 169.008 1533.27 267.445 1751.74 230.756C1767.16 228.854 1782.84 226.514 1798.93 223.697C1799.09 223.669 1799.23 223.58 1799.32 223.448C1799.42 223.315 1799.46 223.152 1799.43 222.992C1799.4 222.833 1799.31 222.691 1799.18 222.597C1799.05 222.504 1798.89 222.466 1798.73 222.493C1798.73 222.493 1798.73 222.493 1798.73 222.493C1782.65 225.217 1766.97 227.468 1751.57 229.283C1533.11 264.576 1286.88 166.216 1196.89 -44.5366C1169.55 -101.915 1151.18 -163.644 1142.31 -226.771C1140.13 -242.432 1138.55 -258.628 1137.77 -274.262Z" fill="#CCDBFF"/>
<path d="M1143.52 -290.529C1143.51 -290.69 1143.44 -290.841 1143.32 -290.95C1143.2 -291.059 1143.05 -291.115 1142.89 -291.108C1142.73 -291.101 1142.58 -291.03 1142.47 -290.91C1142.36 -290.791 1142.3 -290.634 1142.31 -290.472C1142.31 -290.472 1142.31 -290.472 1142.31 -290.472C1142.82 -274.786 1144.16 -258.516 1146.13 -242.772C1154.17 -179.312 1172.22 -117.087 1199.72 -59.3821C1290.17 152.741 1539.02 251.178 1757.49 214.489C1772.91 212.588 1788.59 210.247 1804.68 207.43C1804.84 207.403 1804.98 207.313 1805.07 207.181C1805.17 207.049 1805.2 206.885 1805.18 206.725C1805.15 206.566 1805.06 206.424 1804.93 206.33C1804.8 206.237 1804.64 206.2 1804.48 206.226C1804.48 206.226 1804.48 206.226 1804.48 206.226C1788.39 208.951 1772.72 211.201 1757.32 213.016C1538.86 248.31 1292.62 149.949 1202.64 -60.8033C1175.3 -118.182 1156.93 -179.911 1148.06 -243.038C1145.88 -258.698 1144.3 -274.895 1143.52 -290.529Z" fill="#CCDBFF"/>
<path d="M1146.76 -307.261C1146.76 -307.422 1146.69 -307.574 1146.57 -307.682C1146.45 -307.791 1146.29 -307.848 1146.13 -307.841C1145.97 -307.833 1145.82 -307.762 1145.71 -307.643C1145.6 -307.524 1145.54 -307.366 1145.55 -307.205C1145.55 -307.205 1145.55 -307.205 1145.55 -307.205C1146.06 -291.519 1147.41 -275.249 1149.38 -259.505C1157.42 -196.045 1175.46 -133.82 1202.96 -76.1147C1293.42 136.009 1542.27 234.446 1760.73 197.757C1776.15 195.855 1791.83 193.515 1807.92 190.698C1808.08 190.67 1808.22 190.581 1808.32 190.448C1808.41 190.316 1808.45 190.152 1808.42 189.993C1808.4 189.834 1808.31 189.691 1808.18 189.598C1808.05 189.504 1807.88 189.467 1807.72 189.494C1807.72 189.494 1807.72 189.494 1807.72 189.494C1791.64 192.218 1775.97 194.469 1760.56 196.283C1542.11 231.577 1295.87 133.217 1205.88 -77.5358C1178.54 -134.914 1160.17 -196.644 1151.31 -259.77C1149.13 -275.431 1147.54 -291.627 1146.76 -307.261Z" fill="#CCDBFF"/>
<rect x="457" y="221" width="286" height="254" fill="#F9C300"/>
</g>
<defs>
<clipPath id="clip0_108_282">
<rect width="1508" height="567" fill="white"/>
</clipPath>
</defs>
</svg>
