<svg width="507" height="944" viewBox="0 0 507 944" fill="none" xmlns="http://www.w3.org/2000/svg">
<path d="M-287.338 813.112C-287.471 813.051 -287.631 813.052 -287.784 813.116C-287.937 813.181 -288.07 813.303 -288.153 813.456C-288.237 813.609 -288.265 813.781 -288.231 813.933C-288.196 814.086 -288.103 814.207 -287.971 814.27C-271.857 822.033 -254.47 828.727 -237.081 833.967C-166.789 855.131 -87.3561 856.503 -9.97991 830.447C280.08 722.787 371.044 363.055 414.303 92.2869C417.336 72.2 420.187 51.6173 422.847 30.5273C422.868 30.3618 422.826 30.2058 422.731 30.0937C422.636 29.9816 422.495 29.9225 422.34 29.9294C422.185 29.9364 422.027 30.0088 421.902 30.1308C421.777 30.2527 421.695 30.4143 421.673 30.5798C418.928 51.663 415.995 72.236 412.883 92.3103C368.636 363.118 276.658 721.126 -10.4302 827.281C-87.0848 853.091 -165.916 852.244 -236.284 832.031C-253.69 827.028 -271.128 820.595 -287.338 813.112Z" fill="#CCDBFF"/>
<path d="M-295.394 790.363C-295.526 790.302 -295.687 790.303 -295.84 790.368C-295.992 790.432 -296.125 790.554 -296.209 790.707C-296.293 790.86 -296.32 791.032 -296.286 791.185C-296.252 791.337 -296.159 791.458 -296.027 791.521C-279.912 799.284 -262.525 805.979 -245.137 811.218C-174.844 832.382 -95.4118 833.755 -18.0356 807.698C272.025 700.039 362.988 340.307 406.247 69.5381C409.28 49.4512 412.131 28.8686 414.791 7.77848C414.812 7.61298 414.77 7.457 414.675 7.34489C414.58 7.23277 414.44 7.17369 414.284 7.18064C414.129 7.18761 413.971 7.26003 413.846 7.38199C413.721 7.50396 413.639 7.66548 413.618 7.831C410.872 28.9142 407.939 49.4872 404.827 69.5615C360.581 340.369 268.602 698.377 -18.4858 804.533C-95.1404 830.342 -173.972 829.495 -244.34 809.282C-261.745 804.279 -279.183 797.847 -295.394 790.363Z" fill="#CCDBFF"/>
<path d="M-308.405 773.033C-308.538 772.972 -308.698 772.973 -308.851 773.038C-309.004 773.102 -309.137 773.224 -309.221 773.378C-309.304 773.531 -309.332 773.702 -309.298 773.855C-309.264 774.007 -309.17 774.128 -309.039 774.192C-292.924 781.954 -275.537 788.649 -258.148 793.888C-187.856 815.052 -108.424 816.425 -31.0473 790.368C259.013 682.709 349.976 322.977 393.235 52.2083C396.269 32.1214 399.119 11.5387 401.779 -9.55135C401.8 -9.71686 401.759 -9.87283 401.664 -9.98494C401.569 -10.0971 401.428 -10.1561 401.273 -10.1492C401.117 -10.1422 400.96 -10.0698 400.835 -9.94784C400.71 -9.82588 400.627 -9.66436 400.606 -9.49883C397.86 11.5844 394.928 32.1573 391.816 52.2317C347.569 323.039 255.591 681.047 -31.4976 787.203C-108.152 813.012 -186.983 812.166 -257.352 791.952C-274.757 786.949 -292.195 780.517 -308.405 773.033Z" fill="#CCDBFF"/>
<path d="M-322.784 759.389C-322.917 759.328 -323.077 759.329 -323.23 759.394C-323.383 759.458 -323.516 759.58 -323.6 759.733C-323.683 759.887 -323.711 760.058 -323.677 760.211C-323.643 760.363 -323.549 760.484 -323.418 760.548C-307.303 768.31 -289.916 775.005 -272.527 780.244C-202.235 801.408 -122.802 802.781 -45.4262 776.724C244.634 669.065 335.597 309.333 378.856 38.5642C381.89 18.4774 384.74 -2.10532 387.4 -23.1954C387.421 -23.3609 387.38 -23.5169 387.285 -23.629C387.19 -23.7411 387.049 -23.8002 386.894 -23.7932C386.738 -23.7863 386.581 -23.7138 386.456 -23.5919C386.331 -23.4699 386.248 -23.3084 386.227 -23.1429C383.481 -2.05967 380.549 18.5133 377.437 38.5876C333.19 309.395 241.212 667.403 -45.8765 773.559C-122.531 799.368 -201.362 798.522 -271.731 778.308C-289.136 773.305 -306.574 766.873 -322.784 759.389Z" fill="#CCDBFF"/>
</svg>
