<svg width="367" height="90" viewBox="0 0 367 90" fill="none" xmlns="http://www.w3.org/2000/svg">
<path d="M60.1953 9H81.5761C81.5761 41.5118 66.8891 66.0292 46.2881 81.4093C25.6871 66.0292 11 41.5118 11 9H60.1953Z" stroke="#003DCC" stroke-width="3.11506" stroke-linecap="square"/>
<path d="M17.4167 42.9131H74.7026" stroke="#003DCC" stroke-width="0.0916573"/>
<path d="M46.2888 42.9131V9.9165H80.6603C80.5075 20.1516 79.1938 41.08 75.1609 42.9131H46.2888Z" fill="#003DCC" stroke="#003DCC" stroke-width="0.0916573"/>
<path d="M30.8188 18.5014V37.6337C35.2682 32.2945 40.2367 33.9259 42.1648 35.409V16.9441C37.3594 13.5626 32.5986 16.5733 30.8188 18.5014Z" fill="#003DCC" stroke="white" stroke-width="0.458286"/>
<path d="M30.5964 18.5014V37.6337C26.1471 32.2945 21.1786 33.9259 19.2505 35.409V16.9441C24.0558 13.5626 28.8167 16.5733 30.5964 18.5014Z" fill="#003DCC" stroke="white" stroke-width="0.458286"/>
<path d="M46.2892 42.9131H17.8755C18.6087 53.912 37.1235 73.4655 46.2892 81.8674V42.9131Z" fill="#003DCC"/>
<path d="M40.3557 55.9201C40.2236 54.5986 39.1995 53.3874 38.704 52.9469C37.1183 56.2504 36.1713 55.865 35.896 55.2594C39.1995 52.1477 36.5016 48.7873 34.7397 47.4961C35.5326 49.7425 33.8588 52.066 32.9228 52.9469C30.5443 54.2683 30.8306 57.4617 31.2711 58.8932C35.1031 61.0075 38.704 59.7742 40.0254 58.8932C40.4218 58.3647 40.4108 56.6909 40.3557 55.9201Z" fill="#F9C300" stroke="#F9C300" stroke-width="0.820092"/>
<path d="M40.5981 61.5415H31.0179C30.8857 62.7308 31.0729 63.4686 31.183 63.6888H32.0089C32.6696 63.6888 32.9449 64.2394 33 64.5147C32.7357 65.8361 33.6607 66.1664 34.1562 66.1664L34.6628 67.9985L37.4597 70.8688V66.1664C37.9883 66.0343 37.3129 65.3484 37.5331 65.1282C37.5331 63.5425 39.7722 63.6888 40.2677 63.854C41.0605 63.1933 40.8183 62.037 40.5981 61.5415Z" fill="white" stroke="white" stroke-width="0.820092"/>
<path d="M31.1886 61.5415H40.7688C40.9009 62.7308 40.7137 63.4686 40.6036 63.6888H39.7777C39.117 63.6888 38.8417 64.2394 38.7867 64.5147C39.0509 65.8361 38.1259 66.1664 37.6304 66.1664L37.1238 67.9985L35.8937 67.1784L34.3269 66.1664C33.7983 66.0343 33.6536 65.3484 33.4334 65.1282C33.4334 63.5425 32.0144 63.6888 31.5189 63.854C30.7261 63.1933 30.9683 62.037 31.1886 61.5415Z" fill="white" stroke="white" stroke-width="0.820092"/>
<path d="M29.3323 63.8979H41.6336" stroke="#003DCC" stroke-width="0.820092" stroke-linecap="round"/>
<path d="M63.2454 20.9154C64.7039 20.9154 66.1027 21.4948 67.1341 22.5261C68.1654 23.5575 68.7448 24.9563 68.7448 26.4148C68.7448 28.4496 67.6358 30.2278 65.9951 31.181V32.8308C65.9951 33.0739 65.8985 33.3071 65.7266 33.4789C65.5548 33.6508 65.3216 33.7474 65.0785 33.7474H61.4122C61.1692 33.7474 60.936 33.6508 60.7641 33.4789C60.5922 33.3071 60.4957 33.0739 60.4957 32.8308V31.181C58.855 30.2278 57.7459 28.4496 57.7459 26.4148C57.7459 24.9563 58.3254 23.5575 59.3567 22.5261C60.388 21.4948 61.7868 20.9154 63.2454 20.9154ZM65.0785 34.664V35.5805C65.0785 35.8236 64.982 36.0568 64.8101 36.2287C64.6382 36.4006 64.405 36.4971 64.162 36.4971H62.3288C62.0857 36.4971 61.8526 36.4006 61.6807 36.2287C61.5088 36.0568 61.4122 35.8236 61.4122 35.5805V34.664H65.0785ZM70.578 25.4982H73.3277V27.3314H70.578V25.4982ZM53.1631 25.4982H55.9128V27.3314H53.1631V25.4982ZM64.162 16.3325V19.0822H62.3288V16.3325H64.162ZM56.7561 18.624L58.7084 20.5854L57.4068 21.8778L55.4545 19.9347L56.7561 18.624ZM67.7824 20.5763L69.7256 18.624L71.0363 19.9347L69.084 21.8778L67.7824 20.5763Z" fill="white"/>
<path d="M63.2458 20.9155C64.7043 20.9155 66.1031 21.4949 67.1345 22.5263C68.1658 23.5576 68.7452 24.9564 68.7452 26.415C68.7452 28.4498 67.6362 30.2279 65.9955 31.1811V32.831C65.9955 33.0741 65.8989 33.3072 65.727 33.4791C65.5551 33.651 65.322 33.7475 65.0789 33.7475H61.4126C61.1695 33.7475 60.9364 33.651 60.7645 33.4791C60.5926 33.3072 60.4961 33.0741 60.4961 32.831V31.1811C58.8554 30.2279 57.7463 28.4498 57.7463 26.415C57.7463 24.9564 58.3257 23.5576 59.3571 22.5263C60.3884 21.4949 61.7872 20.9155 63.2458 20.9155Z" fill="#F9C300"/>
<path d="M70.578 25.4982H73.3277V27.3314H70.578V25.4982ZM53.1631 25.4982H55.9128V27.3314H53.1631V25.4982ZM64.162 16.3325V19.0822H62.3288V16.3325H64.162ZM56.7561 18.624L58.7084 20.5854L57.4068 21.8778L55.4545 19.9347L56.7561 18.624ZM67.7824 20.5763L69.7256 18.624L71.0363 19.9347L69.084 21.8778L67.7824 20.5763Z" fill="#F9C300"/>
<circle cx="57.1765" cy="55.0657" r="7.53785" fill="#003DCC"/>
<path d="M49.6387 55.0657C52.1513 55.6938 56.7996 55.0657 55.2921 47.5278" stroke="white" stroke-width="1.88446" stroke-linecap="round"/>
<path d="M59.0624 62.6035C57.8061 59.4627 57.178 53.1812 64.7158 53.1812" stroke="white" stroke-width="1.88446" stroke-linecap="round"/>
<path d="M116.135 26.4336C119.24 26.4336 121.355 28.9536 120.86 32.0586L119.825 38.4936H114.2L114.785 34.8936C115.055 33.3186 113.975 32.0586 112.445 32.0586H111.185C109.61 32.0586 108.17 33.3186 107.9 34.8936L105.605 49.5186C105.335 51.0936 106.415 52.3536 107.945 52.3536H109.205C110.78 52.3536 112.22 51.0936 112.445 49.5186L113.03 45.9186H118.655L117.62 52.3536C117.125 55.4586 114.245 57.9336 111.14 57.9336H104.255C101.15 57.9336 99.0355 55.4586 99.5305 52.3536L102.77 32.0586C103.22 28.9536 106.145 26.4336 109.25 26.4336H116.135ZM142.695 27.8736C143.415 28.7736 143.73 29.9886 143.55 31.2486L139.32 57.9336H133.695L134.91 50.2836L128.655 46.5036L126.81 57.9336H121.23L125.46 31.2486C125.64 29.9886 126.36 28.7736 127.395 27.8736V27.8286C128.43 26.9736 129.735 26.4336 130.995 26.4336H139.545C140.805 26.4336 141.93 26.9736 142.65 27.8286L142.695 27.8736ZM135.945 43.8936L137.52 33.9486C137.655 32.9136 136.98 32.0586 135.945 32.0586H132.795C131.76 32.0586 130.815 32.9136 130.635 33.9486L129.645 40.0686L135.945 43.8936ZM171.764 26.7486C173.429 25.8936 175.139 27.0186 174.824 28.7736L170.234 57.9786H164.609L168.389 34.1736L164.564 36.0636C163.844 36.4236 163.304 37.1436 163.214 37.8636L160.019 57.9786H154.394L157.589 37.8636C157.724 37.1436 157.409 36.4236 156.824 36.0636L153.629 34.1736L149.849 57.9786H144.224L148.859 28.7736C149.129 27.0186 151.154 25.8936 152.549 26.7486L159.434 30.7086C160.649 31.3836 162.224 31.3836 163.619 30.7086L171.764 26.7486ZM190.785 26.4336C194.925 26.4336 197.715 29.8086 197.085 33.9486L195.735 42.3186C195.105 46.4586 191.235 49.7886 187.095 49.7886H182.1L180.795 57.9336H175.215L180.21 26.4336H190.785ZM191.19 35.7936C191.505 33.7236 190.11 32.0586 188.04 32.0586H184.89L183 44.2086H186.105C188.175 44.2086 190.11 42.4986 190.425 40.4286L191.19 35.7936ZM210.601 26.4336C215.596 26.4336 219.016 30.5286 218.206 35.5236L217.891 37.5486H212.266L212.581 35.5236C212.896 33.5886 211.591 32.0586 209.701 32.0586C207.811 32.0586 206.011 33.5886 205.696 35.5236L205.561 36.3786L213.706 41.7336C215.686 42.9936 216.631 45.3786 216.226 47.8986L216.091 48.8886C215.281 53.8836 210.601 57.9336 205.606 57.9336C200.611 57.9336 197.191 53.8836 198.001 48.8886L198.091 48.1686H203.716L203.581 48.8886C203.311 50.7786 204.571 52.3536 206.506 52.3536C208.396 52.3536 210.151 50.7786 210.466 48.8886L210.781 46.9986L202.636 41.6886C200.656 40.3836 199.711 38.0436 200.116 35.5236C200.881 30.5286 205.606 26.4336 210.601 26.4336ZM236.193 26.4336H241.773L238.218 48.9336C237.453 53.8836 232.773 57.9336 227.778 57.9336C222.783 57.9336 219.363 53.8836 220.173 48.9336L223.728 26.4336H229.308L225.528 50.4636C225.348 51.4986 226.068 52.3536 227.103 52.3536H230.208C231.243 52.3536 232.188 51.4986 232.368 50.4636L236.193 26.4336ZM258.879 26.4336C261.984 26.4336 264.099 28.9536 263.604 32.0586L262.569 38.4936H256.944L257.529 34.8936C257.799 33.3186 256.719 32.0586 255.189 32.0586H253.929C252.354 32.0586 250.914 33.3186 250.644 34.8936L248.349 49.5186C248.079 51.0936 249.159 52.3536 250.689 52.3536H251.949C253.524 52.3536 254.964 51.0936 255.189 49.5186L255.774 45.9186H261.399L260.364 52.3536C259.869 55.4586 256.989 57.9336 253.884 57.9336H246.999C243.894 57.9336 241.779 55.4586 242.274 52.3536L245.514 32.0586C245.964 28.9536 248.889 26.4336 251.994 26.4336H258.879ZM281.343 26.4336C284.448 26.4336 286.563 28.9536 286.068 32.0586L285.033 38.4936H279.408L279.993 34.8936C280.263 33.3186 279.183 32.0586 277.653 32.0586H276.393C274.818 32.0586 273.378 33.3186 273.108 34.8936L270.813 49.5186C270.543 51.0936 271.623 52.3536 273.153 52.3536H274.413C275.988 52.3536 277.428 51.0936 277.653 49.5186L278.238 45.9186H283.863L282.828 52.3536C282.333 55.4586 279.453 57.9336 276.348 57.9336H269.463C266.358 57.9336 264.243 55.4586 264.738 52.3536L267.978 32.0586C268.428 28.9536 271.353 26.4336 274.458 26.4336H281.343ZM303.808 26.4336C306.913 26.4336 309.028 28.9536 308.533 32.0586L306.418 45.4236H301.333L294.358 42.5436L293.143 50.4636C292.963 51.4986 293.683 52.3536 294.718 52.3536H297.823C298.858 52.3536 299.848 51.4986 299.983 50.4636L300.343 48.2586H305.968L305.293 52.3536C304.798 55.4586 301.918 57.9336 298.813 57.9336H291.928C288.823 57.9336 286.708 55.4586 287.203 52.3536L290.443 32.0586C290.893 28.9536 293.818 26.4336 296.923 26.4336H303.808ZM301.783 39.1686L302.593 33.9486C302.773 32.9136 302.053 32.0586 301.018 32.0586H297.913C296.878 32.0586 295.888 32.9136 295.753 33.9486L295.348 36.5136L301.783 39.1686ZM322.398 26.4336C327.393 26.4336 330.813 30.5286 330.003 35.5236L329.688 37.5486H324.063L324.378 35.5236C324.693 33.5886 323.388 32.0586 321.498 32.0586C319.608 32.0586 317.808 33.5886 317.493 35.5236L317.358 36.3786L325.503 41.7336C327.483 42.9936 328.428 45.3786 328.023 47.8986L327.888 48.8886C327.078 53.8836 322.398 57.9336 317.403 57.9336C312.408 57.9336 308.988 53.8836 309.798 48.8886L309.888 48.1686H315.513L315.378 48.8886C315.108 50.7786 316.368 52.3536 318.303 52.3536C320.193 52.3536 321.948 50.7786 322.263 48.8886L322.578 46.9986L314.433 41.6886C312.453 40.3836 311.508 38.0436 311.913 35.5236C312.678 30.5286 317.403 26.4336 322.398 26.4336ZM343.94 26.4336C348.935 26.4336 352.355 30.5286 351.545 35.5236L351.23 37.5486H345.605L345.92 35.5236C346.235 33.5886 344.93 32.0586 343.04 32.0586C341.15 32.0586 339.35 33.5886 339.035 35.5236L338.9 36.3786L347.045 41.7336C349.025 42.9936 349.97 45.3786 349.565 47.8986L349.43 48.8886C348.62 53.8836 343.94 57.9336 338.945 57.9336C333.95 57.9336 330.53 53.8836 331.34 48.8886L331.43 48.1686H337.055L336.92 48.8886C336.65 50.7786 337.91 52.3536 339.845 52.3536C341.735 52.3536 343.49 50.7786 343.805 48.8886L344.12 46.9986L335.975 41.6886C333.995 40.3836 333.05 38.0436 333.455 35.5236C334.22 30.5286 338.945 26.4336 343.94 26.4336Z" fill="#003DCC"/>
</svg>
