<svg width="1508" height="567" viewBox="0 0 1508 567" fill="none" xmlns="http://www.w3.org/2000/svg">
<g clip-path="url(#clip0_108_282)">
<rect width="1508" height="567" fill="white"/>
<path d="M1243.43 -230.478C1243.43 -230.639 1243.36 -230.79 1243.24 -230.899C1243.12 -231.008 1242.96 -231.064 1242.8 -231.057C1242.64 -231.05 1242.49 -230.978 1242.38 -230.859C1242.27 -230.74 1242.22 -230.583 1242.22 -230.421C1242.22 -230.421 1242.22 -230.421 1242.22 -230.421C1242.73 -214.735 1244.08 -198.465 1246.05 -182.721C1254.09 -119.261 1272.13 -57.0361 1299.63 0.668939C1390.09 212.792 1638.94 311.229 1857.4 274.54C1872.82 272.639 1888.51 270.298 1904.6 267.482C1904.75 267.454 1904.9 267.364 1904.99 267.232C1905.08 267.1 1905.12 266.936 1905.09 266.777C1905.07 266.617 1904.98 266.475 1904.85 266.382C1904.72 266.288 1904.55 266.251 1904.4 266.278C1904.4 266.278 1904.4 266.278 1904.4 266.278C1888.31 269.002 1872.64 271.252 1857.23 273.067C1638.78 308.361 1392.54 210 1302.55 -0.752197C1275.21 -58.1306 1256.84 -119.86 1247.98 -182.987C1245.8 -198.647 1244.21 -214.844 1243.43 -230.478Z" fill="#CCDBFF"/>
<path d="M1253.77 -243.262C1253.77 -243.423 1253.7 -243.575 1253.58 -243.683C1253.46 -243.792 1253.3 -243.849 1253.14 -243.841C1252.98 -243.834 1252.83 -243.763 1252.72 -243.644C1252.61 -243.524 1252.56 -243.367 1252.56 -243.206C1252.56 -243.206 1252.56 -243.206 1252.56 -243.206C1253.07 -227.519 1254.42 -211.249 1256.39 -195.506C1264.43 -132.046 1282.47 -69.8204 1309.97 -12.1154C1400.43 200.008 1649.28 298.445 1867.74 261.756C1883.16 259.854 1898.85 257.514 1914.94 254.697C1915.09 254.669 1915.24 254.58 1915.33 254.448C1915.42 254.315 1915.46 254.152 1915.43 253.992C1915.41 253.833 1915.32 253.691 1915.19 253.597C1915.06 253.504 1914.89 253.466 1914.74 253.493C1914.74 253.493 1914.74 253.493 1914.74 253.493C1898.65 256.217 1882.98 258.468 1867.57 260.283C1649.12 295.576 1402.88 197.216 1312.89 -13.5366C1285.55 -70.915 1267.18 -132.644 1258.32 -195.771C1256.14 -211.432 1254.55 -227.628 1253.77 -243.262Z" fill="#CCDBFF"/>
<path d="M1259.52 -259.529C1259.52 -259.69 1259.44 -259.841 1259.33 -259.95C1259.21 -260.059 1259.05 -260.115 1258.89 -260.108C1258.73 -260.101 1258.58 -260.029 1258.47 -259.91C1258.36 -259.791 1258.3 -259.634 1258.31 -259.472C1258.31 -259.472 1258.31 -259.472 1258.31 -259.472C1258.82 -243.786 1260.17 -227.516 1262.14 -211.772C1270.18 -148.312 1288.22 -86.0871 1315.72 -28.3821C1406.18 183.741 1655.03 282.178 1873.49 245.489C1888.91 243.588 1904.59 241.247 1920.68 238.431C1920.84 238.403 1920.98 238.313 1921.08 238.181C1921.17 238.049 1921.21 237.885 1921.18 237.726C1921.16 237.566 1921.07 237.424 1920.94 237.331C1920.81 237.237 1920.64 237.2 1920.48 237.227C1920.48 237.227 1920.48 237.227 1920.48 237.227C1904.4 239.951 1888.73 242.201 1873.32 244.016C1654.87 279.31 1408.63 180.949 1318.64 -29.8032C1291.3 -87.1817 1272.93 -148.911 1264.07 -212.038C1261.89 -227.698 1260.3 -243.895 1259.52 -259.529Z" fill="#CCDBFF"/>
<path d="M1262.77 -276.261C1262.76 -276.422 1262.69 -276.574 1262.57 -276.682C1262.45 -276.791 1262.3 -276.848 1262.14 -276.841C1261.98 -276.833 1261.83 -276.762 1261.72 -276.643C1261.61 -276.524 1261.55 -276.366 1261.56 -276.205C1261.56 -276.205 1261.56 -276.205 1261.56 -276.205C1262.07 -260.518 1263.41 -244.248 1265.38 -228.505C1273.42 -165.045 1291.47 -102.82 1318.97 -45.1146C1409.42 167.009 1658.27 265.446 1876.74 228.757C1892.16 226.855 1907.84 224.515 1923.93 221.698C1924.09 221.67 1924.23 221.581 1924.32 221.448C1924.42 221.316 1924.45 221.152 1924.43 220.993C1924.4 220.834 1924.31 220.691 1924.18 220.598C1924.05 220.504 1923.89 220.467 1923.73 220.494C1923.73 220.494 1923.73 220.494 1923.73 220.494C1907.64 223.218 1891.97 225.469 1876.57 227.283C1658.11 262.577 1411.87 164.217 1321.89 -46.5358C1294.55 -103.914 1276.18 -165.644 1267.31 -228.77C1265.13 -244.431 1263.55 -260.627 1262.77 -276.261Z" fill="#CCDBFF"/>
<rect x="390" y="221" width="343" height="305" fill="#F9C300"/>
</g>
<defs>
<clipPath id="clip0_108_282">
<rect width="1508" height="567" fill="white"/>
</clipPath>
</defs>
</svg>
