<svg width="1728" height="824" viewBox="0 0 1728 824" fill="none" xmlns="http://www.w3.org/2000/svg">
<g clip-path="url(#clip0_92_1157)">
<path d="M78.0598 1082.85C78.3308 1082.95 78.6018 1083.05 78.8729 1083.15C88.9368 1074.92 98.0804 1066.01 106.163 1057C138.414 1020.77 157.204 980.88 165.486 939.961C195.988 795.65 82.0491 642.328 -101.079 521.608C-113.97 512.972 -127.201 504.439 -141.092 495.81C-141.323 495.906 -141.554 496.002 -141.784 496.098C-127.954 504.742 -114.783 513.289 -101.952 521.937C80.3365 642.844 193.389 795.784 162.99 939.679C154.729 980.483 136.338 1020.29 104.783 1056.61C96.8732 1065.64 87.9207 1074.58 78.0598 1082.85Z" fill="#CCDBFF"/>
<path d="M110.75 1055.79C111.008 1055.91 111.265 1056.03 111.523 1056.15C122.093 1048.66 132.153 1040.33 141.037 1032.06C177.073 998.28 201.446 960.436 216.286 920.506C270.585 780.376 186.188 617.357 17.4815 485.116C5.64823 475.635 -6.44817 466.339 -19.2741 456.872C-19.509 456.957 -19.744 457.043 -19.9789 457.128C-7.21442 466.607 4.82048 475.914 16.5921 485.402C184.424 617.774 267.975 780.266 213.858 920C199.058 959.818 175.088 997.622 139.721 1031.55C131.004 1039.86 121.127 1048.24 110.75 1055.79Z" fill="#CCDBFF"/>
<path d="M95.5101 1059.7C95.7791 1059.8 96.0481 1059.9 96.317 1060C106.721 1051.76 116.378 1042.77 124.878 1033.8C159.1 997.416 180.31 957.496 191.127 916.252C231.042 771.073 123.797 613.756 -62.0524 491.05C-75.1183 482.253 -88.4847 473.612 -102.578 464.857C-102.808 464.953 -103.039 465.049 -103.27 465.145C-89.238 473.915 -75.9323 482.569 -62.9272 491.378C122.066 614.264 228.422 771.158 188.64 915.932C177.85 957.063 157.042 996.913 123.51 1033.39C115.181 1042.39 105.713 1051.42 95.5101 1059.7Z" fill="#CCDBFF"/>
<path d="M1251.11 -234.67C1250.82 -234.612 1250.53 -234.554 1250.24 -234.496C1245.56 -219.365 1243.34 -204.82 1242.63 -190.537C1240.36 -133.541 1260.6 -84.2825 1292.64 -41.0113C1408.19 110.502 1663.5 180.655 1948.61 204.938C1968.75 206.645 1989.44 208.156 2010.68 209.459C2010.84 209.269 2011 209.08 2011.16 208.89C1989.97 207.545 1969.33 205.994 1949.23 204.248C1664.72 179.428 1410.18 109.055 1294.9 -42.1302C1262.93 -85.3093 1242.43 -134.284 1244.06 -190.953C1244.61 -205.154 1246.65 -219.617 1251.11 -234.67Z" fill="#CCDBFF"/>
<path d="M1238.61 -193.693C1238.32 -193.657 1238.03 -193.621 1237.73 -193.585C1231.61 -179.028 1227.63 -164.763 1225.03 -150.572C1215.15 -94.3931 1226.43 -42.9182 1250.15 3.17714C1335.45 165.633 1572.98 256.138 1849.48 296.268C1868.98 299.123 1889.04 301.793 1909.69 304.27C1909.86 304.09 1910.04 303.91 1910.21 303.73C1889.61 301.214 1869.59 298.506 1850.14 295.616C1574.29 254.982 1337.6 164.334 1252.5 2.24978C1228.84 -43.7431 1217.26 -94.955 1226.47 -150.868C1228.91 -164.993 1232.7 -179.193 1238.61 -193.693Z" fill="#CCDBFF"/>
<path d="M1252.1 -204.651C1251.8 -204.596 1251.51 -204.541 1251.22 -204.486C1246.11 -189.156 1243.31 -174.33 1241.99 -159.711C1237.22 -101.64 1254.59 -50.4644 1284.2 -5.48314C1390.81 152.529 1644.84 227.596 1932.52 252.27C1952.83 254.02 1973.7 255.559 1995.14 256.875C1995.3 256.685 1995.46 256.496 1995.63 256.306C1974.23 254.948 1953.41 253.369 1933.14 251.581C1646.07 226.367 1392.84 151.095 1286.48 -6.57202C1256.93 -51.4573 1239.29 -102.351 1243.41 -160.107C1244.58 -174.647 1247.19 -189.395 1252.1 -204.651Z" fill="#CCDBFF"/>
</g>
<defs>
<clipPath id="clip0_92_1157">
<rect width="1728" height="824" fill="white"/>
</clipPath>
</defs>
</svg>
