<svg width="1820" height="916" viewBox="0 0 1820 916" fill="none" xmlns="http://www.w3.org/2000/svg">
<rect width="1724" height="673" transform="translate(0 243)" fill="#FAFCFF"/>
<path d="M1138.44 46.5223C1138.43 46.3613 1138.36 46.2097 1138.24 46.101C1138.12 45.9924 1137.96 45.9355 1137.8 45.9429C1137.64 45.9503 1137.49 46.0215 1137.38 46.1407C1137.27 46.2599 1137.22 46.4174 1137.22 46.5786C1137.22 46.5786 1137.22 46.5786 1137.22 46.5786C1137.73 62.2649 1139.08 78.535 1141.05 94.2785C1149.09 157.739 1167.13 219.964 1194.63 277.669C1285.09 489.792 1533.94 588.229 1752.4 551.54C1767.82 549.639 1783.51 547.298 1799.6 544.481C1799.76 544.454 1799.9 544.364 1799.99 544.232C1800.08 544.1 1800.12 543.936 1800.09 543.776C1800.07 543.617 1799.98 543.475 1799.85 543.381C1799.72 543.288 1799.56 543.251 1799.4 543.277C1799.4 543.277 1799.4 543.277 1799.4 543.277C1783.31 546.001 1767.64 548.252 1752.23 550.067C1533.78 585.361 1287.54 487 1197.55 276.248C1170.21 218.869 1151.85 157.14 1142.98 94.0133C1140.8 78.3525 1139.22 62.1561 1138.44 46.5223Z" fill="#CCDBFF"/>
<path d="M1148.78 33.7379C1148.77 33.5769 1148.7 33.4253 1148.58 33.3166C1148.46 33.208 1148.3 33.1511 1148.14 33.1585C1147.98 33.1659 1147.83 33.237 1147.72 33.3562C1147.61 33.4754 1147.56 33.6329 1147.56 33.7941C1147.56 33.7941 1147.56 33.7941 1147.56 33.7941C1148.07 49.4805 1149.42 65.7506 1151.39 81.4941C1159.43 144.954 1177.47 207.179 1204.97 264.884C1295.43 477.008 1544.28 575.445 1762.74 538.756C1778.16 536.854 1793.85 534.514 1809.94 531.697C1810.1 531.669 1810.24 531.58 1810.33 531.447C1810.42 531.315 1810.46 531.151 1810.43 530.992C1810.41 530.833 1810.32 530.691 1810.19 530.597C1810.06 530.503 1809.9 530.466 1809.74 530.493C1809.74 530.493 1809.74 530.493 1809.74 530.493C1793.65 533.217 1777.98 535.468 1762.57 537.282C1544.12 572.576 1297.88 474.216 1207.89 263.463C1180.55 206.085 1162.19 144.356 1153.32 81.2289C1151.14 65.568 1149.56 49.3717 1148.78 33.7379Z" fill="#CCDBFF"/>
<path d="M1154.52 17.4713C1154.52 17.3103 1154.45 17.1587 1154.33 17.05C1154.21 16.9414 1154.05 16.8845 1153.89 16.8919C1153.73 16.8993 1153.58 16.9704 1153.47 17.0896C1153.36 17.2088 1153.31 17.3663 1153.31 17.5275C1153.31 17.5275 1153.31 17.5275 1153.31 17.5275C1153.82 33.2139 1155.17 49.484 1157.14 65.2275C1165.18 128.688 1183.22 190.913 1210.72 248.618C1301.18 460.741 1550.03 559.178 1768.49 522.489C1783.91 520.588 1799.6 518.247 1815.69 515.43C1815.84 515.403 1815.99 515.313 1816.08 515.181C1816.17 515.049 1816.21 514.885 1816.18 514.725C1816.16 514.566 1816.07 514.424 1815.94 514.33C1815.81 514.237 1815.64 514.2 1815.49 514.226C1815.49 514.226 1815.49 514.226 1815.49 514.226C1799.4 516.95 1783.73 519.201 1768.32 521.016C1549.87 556.31 1303.63 457.949 1213.64 247.197C1186.3 189.818 1167.93 128.089 1159.07 64.9623C1156.89 49.3014 1155.3 33.1051 1154.52 17.4713Z" fill="#CCDBFF"/>
<path d="M1157.77 0.738774C1157.76 0.577709 1157.69 0.426147 1157.57 0.317477C1157.45 0.208807 1157.3 0.151921 1157.14 0.159342C1156.98 0.166764 1156.83 0.237894 1156.72 0.357094C1156.61 0.476294 1156.55 0.633791 1156.56 0.794983C1156.56 0.794983 1156.56 0.794983 1156.56 0.794983C1157.07 16.4814 1158.41 32.7514 1160.39 48.4949C1168.42 111.955 1186.47 174.18 1213.97 231.885C1304.42 444.008 1553.27 542.446 1771.74 505.757C1787.16 503.855 1802.84 501.514 1818.93 498.698C1819.09 498.67 1819.23 498.58 1819.32 498.448C1819.42 498.316 1819.46 498.152 1819.43 497.993C1819.4 497.833 1819.31 497.691 1819.18 497.598C1819.05 497.504 1818.89 497.467 1818.73 497.494C1818.73 497.494 1818.73 497.494 1818.73 497.494C1802.65 500.218 1786.97 502.469 1771.57 504.283C1553.11 539.577 1306.88 441.217 1216.89 230.464C1189.55 173.086 1171.18 111.356 1162.31 48.2298C1160.13 32.5689 1158.55 16.3726 1157.77 0.738774Z" fill="#CCDBFF"/>
</svg>
