<svg width="428" height="971" viewBox="0 0 428 971" fill="none" xmlns="http://www.w3.org/2000/svg">
<path d="M-172.532 860.309C-172.676 860.383 -172.785 860.509 -172.836 860.662C-172.886 860.814 -172.874 860.98 -172.801 861.123C-172.729 861.266 -172.602 861.375 -172.449 861.425C-172.295 861.476 -172.128 861.464 -171.983 861.393C-157.888 854.489 -143.603 846.587 -130.055 838.329C-75.4808 804.96 -26.1392 762.971 15.2014 714.217C171.531 544.69 159.193 277.363 36.095 93.1884C28.0339 79.9064 19.4642 66.5647 10.2937 53.0472C10.2034 52.914 10.0635 52.8217 9.90462 52.7908C9.74577 52.7598 9.58098 52.7927 9.44645 52.8823C9.31192 52.9719 9.21864 53.1108 9.18706 53.2685C9.15545 53.4263 9.1882 53.5899 9.27781 53.7236C18.362 67.2747 26.8454 80.6441 34.8208 93.9474C156.642 278.684 167.978 543.598 12.7073 712.137C-28.4005 760.613 -77.1577 802.692 -131.087 836.681C-144.475 845.094 -158.595 853.183 -172.532 860.309Z" fill="#CCDBFF"/>
<path d="M-188.434 856.125C-188.577 856.198 -188.687 856.325 -188.737 856.477C-188.788 856.63 -188.775 856.796 -188.703 856.939C-188.63 857.082 -188.503 857.191 -188.35 857.241C-188.197 857.291 -188.029 857.279 -187.885 857.208C-173.79 850.305 -159.504 842.402 -145.956 834.145C-91.3822 800.775 -42.0406 758.787 -0.699956 710.033C155.63 540.506 143.292 273.179 20.1936 89.004C12.1325 75.722 3.56287 62.3803 -5.60763 48.8629C-5.69799 48.7296 -5.83786 48.6373 -5.99675 48.6064C-6.1556 48.5754 -6.32039 48.6083 -6.45492 48.6979C-6.58945 48.7875 -6.68273 48.9264 -6.7143 49.0841C-6.74591 49.2419 -6.71316 49.4055 -6.62356 49.5392C2.46063 63.0903 10.944 76.4597 18.9194 89.763C140.74 274.499 152.077 539.414 -3.19407 707.953C-44.3019 756.429 -93.059 798.508 -146.988 832.497C-160.376 840.909 -174.497 848.998 -188.434 856.125Z" fill="#CCDBFF"/>
<path d="M-205.627 857.557C-205.771 857.63 -205.88 857.757 -205.93 857.909C-205.981 858.062 -205.969 858.228 -205.896 858.371C-205.824 858.514 -205.697 858.622 -205.543 858.673C-205.39 858.723 -205.223 858.711 -205.078 858.64C-190.983 851.736 -176.698 843.834 -163.149 835.576C-108.576 802.207 -59.234 760.219 -17.8933 711.464C138.436 541.938 126.098 274.61 3.00027 90.4357C-5.06086 77.1537 -13.6305 63.812 -22.801 50.2946C-22.8914 50.1613 -23.0312 50.069 -23.1901 50.0381C-23.349 50.0071 -23.5138 50.04 -23.6483 50.1296C-23.7828 50.2192 -23.8761 50.3581 -23.9077 50.5158C-23.9393 50.6736 -23.9065 50.8372 -23.8169 50.9709C-14.7327 64.522 -6.24932 77.8914 1.72608 91.1947C123.547 275.931 134.883 540.845 -20.3874 709.385C-61.4952 757.861 -110.252 799.939 -164.182 833.928C-177.569 842.341 -191.69 850.43 -205.627 857.557Z" fill="#CCDBFF"/>
<path d="M-222.218 861.463C-222.361 861.536 -222.471 861.663 -222.521 861.815C-222.572 861.968 -222.56 862.134 -222.487 862.277C-222.415 862.42 -222.288 862.528 -222.134 862.579C-221.981 862.629 -221.814 862.617 -221.669 862.546C-207.574 855.642 -193.288 847.74 -179.74 839.482C-125.166 806.113 -75.8248 764.125 -34.4841 715.371C121.845 545.844 109.508 278.516 -13.5905 94.3418C-21.6517 81.0598 -30.2213 67.7181 -39.3918 54.2007C-39.4822 54.0675 -39.622 53.9752 -39.7809 53.9442C-39.9398 53.9133 -40.1046 53.9462 -40.2391 54.0357C-40.3736 54.1253 -40.4669 54.2642 -40.4985 54.4219C-40.5301 54.5797 -40.4973 54.7434 -40.4077 54.8771C-31.3236 68.4282 -22.8401 81.7976 -14.8647 95.1008C106.956 279.837 118.293 544.752 -36.9782 713.291C-78.0861 761.767 -126.843 803.845 -180.772 837.835C-194.16 846.247 -208.281 854.336 -222.218 861.463Z" fill="#CCDBFF"/>
</svg>
