<svg width="865" height="602" viewBox="0 0 865 602" fill="none" xmlns="http://www.w3.org/2000/svg">
<path d="M753.22 68.6306C753.376 68.6706 753.542 68.6482 753.68 68.5673C753.819 68.4864 753.92 68.3539 753.96 68.1987C754.001 68.0435 753.978 67.8781 753.896 67.7388C753.814 67.5994 753.681 67.4977 753.526 67.455C738.392 63.2968 722.454 59.7607 706.833 56.979C643.841 45.8539 579.063 44.6523 515.801 53.8186C286.402 77.3617 118.653 285.872 88.9656 505.399C86.2129 520.69 83.8018 536.362 81.7246 552.564C81.7041 552.724 81.7478 552.886 81.8464 553.014C81.9449 553.142 82.0902 553.227 82.2503 553.249C82.4105 553.271 82.5723 553.228 82.7004 553.131C82.8286 553.034 82.9124 552.889 82.9338 552.73C85.0979 536.56 87.592 520.924 90.423 505.673C121.44 286.571 288.341 80.5324 516.293 57.0286C579.196 47.9167 643.596 48.6636 706.515 58.8973C722.119 61.4568 738.057 64.7439 753.22 68.6306Z" fill="#CCDBFF"/>
<path d="M762.366 82.2946C762.522 82.3347 762.688 82.3122 762.827 82.2314C762.966 82.1505 763.066 82.018 763.107 81.8628C763.147 81.7076 763.124 81.5422 763.042 81.4028C762.961 81.2635 762.828 81.1618 762.672 81.1191C747.538 76.9608 731.6 73.4247 715.979 70.6431C652.987 59.518 588.209 58.3163 524.948 67.4827C295.549 91.0258 127.8 299.536 98.1121 519.063C95.3594 534.354 92.9483 550.026 90.8711 566.228C90.8506 566.388 90.8943 566.55 90.9929 566.678C91.0914 566.806 91.2367 566.891 91.3968 566.913C91.5569 566.935 91.7188 566.892 91.8469 566.795C91.9751 566.698 92.0589 566.554 92.0802 566.394C94.2444 550.224 96.7385 534.588 99.5695 519.338C130.586 300.235 297.488 94.1965 525.44 70.6927C588.343 61.5807 652.742 62.3277 715.662 72.5614C731.265 75.1209 747.203 78.4079 762.366 82.2946Z" fill="#CCDBFF"/>
<path d="M776.199 92.6052C776.355 92.6452 776.521 92.6228 776.66 92.5419C776.799 92.461 776.899 92.3285 776.94 92.1733C776.98 92.0181 776.957 91.8527 776.875 91.7134C776.794 91.5741 776.661 91.4723 776.505 91.4296C761.371 87.2714 745.433 83.7353 729.812 80.9536C666.82 69.8285 602.042 68.6269 538.781 77.7933C309.382 101.336 141.633 309.846 111.945 529.373C109.192 544.664 106.781 560.337 104.704 576.539C104.684 576.698 104.727 576.86 104.826 576.989C104.924 577.117 105.07 577.201 105.23 577.223C105.39 577.245 105.552 577.203 105.68 577.106C105.808 577.008 105.892 576.864 105.913 576.705C108.077 560.534 110.572 544.898 113.403 529.648C144.419 310.546 311.321 104.507 539.273 81.0032C602.176 71.8913 666.575 72.6382 729.495 82.8719C745.098 85.4314 761.036 88.7185 776.199 92.6052Z" fill="#CCDBFF"/>
<path d="M791.219 100.662C791.375 100.702 791.541 100.68 791.679 100.599C791.818 100.518 791.919 100.386 791.959 100.23C792 100.075 791.977 99.9099 791.895 99.7705C791.813 99.6312 791.68 99.5295 791.525 99.4868C776.391 95.3285 760.453 91.7924 744.832 89.0108C681.84 77.8857 617.062 76.684 553.8 85.8504C324.401 109.393 156.652 317.903 126.965 537.43C124.212 552.721 121.801 568.394 119.724 584.596C119.703 584.756 119.747 584.917 119.845 585.046C119.944 585.174 120.089 585.259 120.249 585.281C120.409 585.302 120.571 585.26 120.699 585.163C120.828 585.066 120.911 584.921 120.933 584.762C123.097 568.592 125.591 552.955 128.422 537.705C159.439 318.603 326.341 112.564 554.292 89.0603C617.195 79.9484 681.595 80.6954 744.514 90.9291C760.118 93.4886 776.056 96.7756 791.219 100.662Z" fill="#CCDBFF"/>
</svg>
