<svg width="1965" height="951" viewBox="0 0 1965 951" fill="none" xmlns="http://www.w3.org/2000/svg">
<rect width="1724" height="673" transform="translate(0 278)" fill="#FAFCFF"/>
<path d="M1283.44 46.5223C1283.43 46.3613 1283.36 46.2097 1283.24 46.101C1283.12 45.9924 1282.96 45.9355 1282.8 45.9429C1282.64 45.9503 1282.49 46.0215 1282.38 46.1407C1282.27 46.2599 1282.22 46.4174 1282.22 46.5786C1282.22 46.5786 1282.22 46.5786 1282.22 46.5786C1282.73 62.2649 1284.08 78.535 1286.05 94.2785C1294.09 157.739 1312.13 219.964 1339.63 277.669C1430.09 489.792 1678.94 588.229 1897.4 551.54C1912.82 549.639 1928.51 547.298 1944.6 544.481C1944.76 544.454 1944.9 544.364 1944.99 544.232C1945.08 544.1 1945.12 543.936 1945.09 543.776C1945.07 543.617 1944.98 543.475 1944.85 543.381C1944.72 543.288 1944.56 543.251 1944.4 543.277C1944.4 543.277 1944.4 543.277 1944.4 543.277C1928.31 546.001 1912.64 548.252 1897.23 550.067C1678.78 585.361 1432.54 487 1342.55 276.248C1315.21 218.869 1296.85 157.14 1287.98 94.0133C1285.8 78.3525 1284.22 62.1561 1283.44 46.5223Z" fill="#CCDBFF"/>
<path d="M1293.78 33.7379C1293.77 33.5769 1293.7 33.4253 1293.58 33.3166C1293.46 33.208 1293.3 33.1511 1293.14 33.1585C1292.98 33.1659 1292.83 33.237 1292.72 33.3562C1292.61 33.4754 1292.56 33.6329 1292.56 33.7941C1292.56 33.7941 1292.56 33.7941 1292.56 33.7941C1293.07 49.4805 1294.42 65.7506 1296.39 81.4941C1304.43 144.954 1322.47 207.179 1349.97 264.884C1440.43 477.008 1689.28 575.445 1907.74 538.756C1923.16 536.854 1938.85 534.514 1954.94 531.697C1955.1 531.669 1955.24 531.58 1955.33 531.447C1955.42 531.315 1955.46 531.151 1955.43 530.992C1955.41 530.833 1955.32 530.691 1955.19 530.597C1955.06 530.503 1954.9 530.466 1954.74 530.493C1954.74 530.493 1954.74 530.493 1954.74 530.493C1938.65 533.217 1922.98 535.468 1907.57 537.282C1689.12 572.576 1442.88 474.216 1352.89 263.463C1325.55 206.085 1307.19 144.356 1298.32 81.2289C1296.14 65.568 1294.56 49.3717 1293.78 33.7379Z" fill="#CCDBFF"/>
<path d="M1299.52 17.4713C1299.52 17.3103 1299.45 17.1587 1299.33 17.05C1299.21 16.9414 1299.05 16.8845 1298.89 16.8919C1298.73 16.8993 1298.58 16.9704 1298.47 17.0896C1298.36 17.2088 1298.31 17.3663 1298.31 17.5275C1298.31 17.5275 1298.31 17.5275 1298.31 17.5275C1298.82 33.2139 1300.17 49.484 1302.14 65.2275C1310.18 128.688 1328.22 190.913 1355.72 248.618C1446.18 460.741 1695.03 559.178 1913.49 522.489C1928.91 520.588 1944.6 518.247 1960.69 515.43C1960.84 515.403 1960.99 515.313 1961.08 515.181C1961.17 515.049 1961.21 514.885 1961.18 514.725C1961.16 514.566 1961.07 514.424 1960.94 514.33C1960.81 514.237 1960.64 514.2 1960.49 514.226C1960.49 514.226 1960.49 514.226 1960.49 514.226C1944.4 516.95 1928.73 519.201 1913.32 521.016C1694.87 556.31 1448.63 457.949 1358.64 247.197C1331.3 189.818 1312.93 128.089 1304.07 64.9623C1301.89 49.3014 1300.3 33.1051 1299.52 17.4713Z" fill="#CCDBFF"/>
<path d="M1302.77 0.738774C1302.76 0.577709 1302.69 0.426147 1302.57 0.317477C1302.45 0.208807 1302.3 0.151921 1302.14 0.159342C1301.98 0.166764 1301.83 0.237894 1301.72 0.357094C1301.61 0.476294 1301.55 0.633791 1301.56 0.794983C1301.56 0.794983 1301.56 0.794983 1301.56 0.794983C1302.07 16.4814 1303.41 32.7514 1305.39 48.4949C1313.42 111.955 1331.47 174.18 1358.97 231.885C1449.42 444.008 1698.27 542.446 1916.74 505.757C1932.16 503.855 1947.84 501.514 1963.93 498.698C1964.09 498.67 1964.23 498.58 1964.32 498.448C1964.42 498.316 1964.46 498.152 1964.43 497.993C1964.4 497.833 1964.31 497.691 1964.18 497.598C1964.05 497.504 1963.89 497.467 1963.73 497.494C1963.73 497.494 1963.73 497.494 1963.73 497.494C1947.65 500.218 1931.97 502.469 1916.57 504.283C1698.11 539.577 1451.88 441.217 1361.89 230.464C1334.55 173.086 1316.18 111.356 1307.31 48.2298C1305.13 32.5689 1303.55 16.3726 1302.77 0.738774Z" fill="#CCDBFF"/>
</svg>
