<svg width="1518" height="610" viewBox="0 0 1518 610" fill="none" xmlns="http://www.w3.org/2000/svg">
<g clip-path="url(#clip0_108_224)">
<path d="M1094.43 -276.478C1094.43 -276.639 1094.36 -276.79 1094.24 -276.899C1094.12 -277.008 1093.96 -277.065 1093.8 -277.057C1093.64 -277.05 1093.49 -276.979 1093.38 -276.859C1093.27 -276.74 1093.22 -276.583 1093.22 -276.421C1093.22 -276.421 1093.22 -276.421 1093.22 -276.421C1093.73 -260.735 1095.08 -244.465 1097.05 -228.721C1105.09 -165.261 1123.13 -103.036 1150.63 -45.3312C1241.09 166.792 1489.94 265.229 1708.4 228.54C1723.82 226.639 1739.51 224.298 1755.6 221.481C1755.75 221.454 1755.9 221.364 1755.99 221.232C1756.08 221.1 1756.12 220.936 1756.09 220.776C1756.07 220.617 1755.98 220.475 1755.85 220.381C1755.72 220.288 1755.55 220.251 1755.4 220.277C1755.4 220.277 1755.4 220.277 1755.4 220.277C1739.31 223.001 1723.64 225.252 1708.23 227.067C1489.78 262.361 1243.54 164 1153.55 -46.7523C1126.21 -104.131 1107.85 -165.86 1098.98 -228.987C1096.8 -244.648 1095.22 -260.844 1094.43 -276.478Z" fill="#CCDBFF"/>
<path d="M1104.77 -289.262C1104.77 -289.423 1104.7 -289.575 1104.58 -289.683C1104.46 -289.792 1104.3 -289.849 1104.14 -289.842C1103.98 -289.834 1103.83 -289.763 1103.72 -289.644C1103.61 -289.525 1103.56 -289.367 1103.56 -289.206C1103.56 -289.206 1103.56 -289.206 1103.56 -289.206C1104.07 -273.519 1105.42 -257.249 1107.39 -241.506C1115.43 -178.046 1133.47 -115.821 1160.97 -58.1156C1251.43 154.008 1500.28 252.445 1718.74 215.756C1734.16 213.854 1749.85 211.514 1765.94 208.697C1766.09 208.669 1766.24 208.58 1766.33 208.447C1766.42 208.315 1766.46 208.151 1766.43 207.992C1766.41 207.833 1766.32 207.691 1766.19 207.597C1766.06 207.503 1765.89 207.466 1765.74 207.493C1765.74 207.493 1765.74 207.493 1765.74 207.493C1749.65 210.217 1733.98 212.468 1718.57 214.282C1500.12 249.576 1253.88 151.216 1163.89 -59.5367C1136.55 -116.915 1118.18 -178.644 1109.32 -241.771C1107.14 -257.432 1105.56 -273.628 1104.77 -289.262Z" fill="#CCDBFF"/>
<path d="M1110.52 -305.529C1110.52 -305.69 1110.45 -305.841 1110.33 -305.95C1110.21 -306.059 1110.05 -306.115 1109.89 -306.108C1109.73 -306.101 1109.58 -306.029 1109.47 -305.91C1109.36 -305.791 1109.31 -305.634 1109.31 -305.472C1109.31 -305.472 1109.31 -305.472 1109.31 -305.472C1109.82 -289.786 1111.17 -273.516 1113.14 -257.772C1121.18 -194.312 1139.22 -132.087 1166.72 -74.3821C1257.18 137.741 1506.03 236.178 1724.49 199.489C1739.91 197.588 1755.6 195.247 1771.69 192.431C1771.84 192.403 1771.99 192.313 1772.08 192.181C1772.17 192.049 1772.21 191.885 1772.18 191.726C1772.16 191.566 1772.07 191.424 1771.94 191.331C1771.81 191.237 1771.64 191.2 1771.49 191.227C1771.49 191.227 1771.49 191.227 1771.49 191.227C1755.4 193.951 1739.73 196.201 1724.32 198.016C1505.87 233.31 1259.63 134.949 1169.64 -75.8032C1142.3 -133.182 1123.93 -194.911 1115.07 -258.038C1112.89 -273.698 1111.3 -289.895 1110.52 -305.529Z" fill="#CCDBFF"/>
<path d="M1113.77 -322.261C1113.76 -322.422 1113.69 -322.574 1113.57 -322.682C1113.45 -322.791 1113.3 -322.848 1113.14 -322.841C1112.98 -322.833 1112.83 -322.762 1112.72 -322.643C1112.61 -322.524 1112.55 -322.366 1112.56 -322.205C1112.56 -322.205 1112.56 -322.205 1112.56 -322.205C1113.07 -306.518 1114.41 -290.248 1116.38 -274.505C1124.42 -211.045 1142.47 -148.82 1169.97 -91.1146C1260.42 121.009 1509.27 219.446 1727.74 182.757C1743.16 180.855 1758.84 178.515 1774.93 175.698C1775.09 175.67 1775.23 175.581 1775.32 175.448C1775.42 175.316 1775.45 175.152 1775.43 174.993C1775.4 174.834 1775.31 174.691 1775.18 174.598C1775.05 174.504 1774.89 174.467 1774.73 174.494C1774.73 174.494 1774.73 174.494 1774.73 174.494C1758.64 177.218 1742.97 179.469 1727.57 181.283C1509.11 216.577 1262.88 118.217 1172.89 -92.5358C1145.55 -149.914 1127.18 -211.644 1118.31 -274.77C1116.13 -290.431 1114.55 -306.627 1113.77 -322.261Z" fill="#CCDBFF"/>
</g>
<defs>
<clipPath id="clip0_108_224">
<rect width="1518" height="610" fill="white"/>
</clipPath>
</defs>
</svg>
