<svg width="1558" height="610" viewBox="0 0 1558 610" fill="none" xmlns="http://www.w3.org/2000/svg">
<g clip-path="url(#clip0_88_941)">
<path d="M1516.69 -19.7238C1516.86 -19.6967 1517.02 -19.7314 1517.14 -19.8208C1517.27 -19.9102 1517.34 -20.047 1517.35 -20.201C1517.36 -20.355 1517.3 -20.5138 1517.19 -20.6425C1517.07 -20.7712 1516.92 -20.8593 1516.75 -20.8878C1516.75 -20.8878 1516.75 -20.8878 1516.75 -20.8878C1486.21 -26.1548 1454.46 -30.538 1423.26 -33.9569C1298.34 -47.5079 1173.34 -47.9788 1051.86 -36.3242C628.444 -4.80217 220.861 232.024 138.432 635.127C131.642 663.311 126.362 690.478 121.925 719.682C121.902 719.833 121.945 719.994 122.045 720.131C122.145 720.268 122.293 720.368 122.458 720.41C122.622 720.452 122.789 720.432 122.921 720.355C123.054 720.278 123.142 720.15 123.165 719.999C123.165 719.999 123.165 719.999 123.165 719.999C127.69 690.847 133.052 663.738 139.918 635.619C223.565 233.542 629.978 -1.58306 1052.63 -33.1857C1173.88 -44.8168 1298.56 -44.7736 1423.3 -32.0764C1454.45 -28.8707 1486.17 -24.727 1516.69 -19.7238Z" fill="#CCDBFF"/>
<path d="M1496.68 -39.6133C1496.85 -39.5862 1497.01 -39.6209 1497.13 -39.7104C1497.25 -39.7998 1497.33 -39.9365 1497.33 -40.0905C1497.34 -40.2445 1497.28 -40.4033 1497.17 -40.532C1497.06 -40.6608 1496.9 -40.7488 1496.74 -40.7773C1496.74 -40.7773 1496.74 -40.7773 1496.74 -40.7773C1466.19 -46.0444 1434.44 -50.4276 1403.24 -53.8464C1278.33 -67.3975 1153.33 -67.8683 1031.85 -56.2137C608.43 -24.6917 200.846 212.134 118.418 615.237C111.627 643.422 106.348 670.588 101.91 699.792C101.887 699.943 101.931 700.105 102.031 700.241C102.13 700.378 102.279 700.478 102.443 700.52C102.607 700.562 102.774 700.543 102.907 700.466C103.039 700.389 103.127 700.261 103.15 700.11C103.15 700.11 103.15 700.11 103.15 700.11C107.675 670.958 113.037 643.849 119.903 615.729C203.551 213.653 609.963 -21.4726 1032.61 -53.0752C1153.86 -64.7063 1278.55 -64.6631 1403.28 -51.9659C1434.44 -48.7602 1466.15 -44.6165 1496.68 -39.6133Z" fill="#CCDBFF"/>
<path d="M1546.45 -4.95807C1546.61 -4.93095 1546.77 -4.96567 1546.9 -5.05509C1547.02 -5.1445 1547.09 -5.2812 1547.1 -5.43521C1547.11 -5.58921 1547.05 -5.74801 1546.94 -5.87675C1546.83 -6.0055 1546.67 -6.09356 1546.51 -6.12206C1546.51 -6.12206 1546.51 -6.12206 1546.51 -6.12206C1515.96 -11.3891 1484.21 -15.7723 1453.01 -19.1911C1328.1 -32.7422 1203.1 -33.213 1081.61 -21.5584C658.197 9.96358 250.613 246.79 168.185 649.892C161.394 678.077 156.115 705.243 151.677 734.448C151.654 734.599 151.698 734.76 151.798 734.897C151.898 735.033 152.046 735.134 152.21 735.176C152.375 735.218 152.541 735.198 152.674 735.121C152.806 735.044 152.894 734.916 152.917 734.765C152.917 734.765 152.917 734.765 152.917 734.765C157.442 705.613 162.804 678.504 169.67 650.384C253.318 248.308 659.73 13.1827 1082.38 -18.4199C1203.63 -30.0511 1328.31 -30.0078 1453.05 -17.3106C1484.2 -14.1049 1515.92 -9.96126 1546.45 -4.95807Z" fill="#CCDBFF"/>
<path d="M1578.6 6.4339C1578.76 6.46102 1578.92 6.4263 1579.05 6.33688C1579.17 6.24747 1579.24 6.11076 1579.25 5.95676C1579.26 5.80276 1579.2 5.64396 1579.09 5.51521C1578.98 5.38647 1578.82 5.2984 1578.65 5.2699C1578.65 5.2699 1578.65 5.2699 1578.65 5.2699C1548.11 0.00288108 1516.36 -4.38032 1485.16 -7.79916C1360.25 -21.3502 1235.24 -21.821 1113.76 -10.1665C690.346 21.3555 282.762 258.182 200.334 661.284C193.543 689.469 188.264 716.635 183.826 745.84C183.803 745.991 183.847 746.152 183.947 746.289C184.046 746.425 184.195 746.526 184.359 746.568C184.523 746.61 184.69 746.59 184.823 746.513C184.955 746.436 185.043 746.308 185.066 746.157C185.066 746.157 185.066 746.157 185.066 746.157C189.591 717.005 194.953 689.896 201.819 661.776C285.467 259.7 691.879 24.5747 1114.53 -7.02797C1235.78 -18.6591 1360.46 -18.6159 1485.2 -5.91867C1516.35 -2.71298 1548.07 1.43071 1578.6 6.4339Z" fill="#CCDBFF"/>
<rect x="195.5" y="53.5" width="466" height="493" stroke="#FAC402" stroke-width="15"/>
</g>
<defs>
<clipPath id="clip0_88_941">
<rect width="1558" height="610" fill="white"/>
</clipPath>
</defs>
</svg>
