<svg width="1729" height="610" viewBox="0 0 1729 610" fill="none" xmlns="http://www.w3.org/2000/svg">
<g clip-path="url(#clip0_91_979)">
<path d="M-45.1242 360.623C-45.2831 360.586 -45.4483 360.612 -45.5836 360.696C-45.7188 360.78 -45.8131 360.914 -45.8457 361.069C-45.8783 361.225 -45.8465 361.389 -45.7575 361.525C-45.6684 361.662 -45.5293 361.76 -45.3709 361.799C-45.3709 361.799 -45.3709 361.799 -45.3709 361.799C-27.4679 366.173 -8.68051 369.863 9.72614 372.748C83.8475 384.259 159.382 385.113 233.103 375.173C497.626 350.199 706.331 129.254 741.767 -126.22C745.065 -144.011 747.848 -161.892 750.226 -180.585C750.246 -180.744 750.201 -180.906 750.102 -181.036C750.002 -181.166 749.856 -181.253 749.695 -181.279C749.534 -181.304 749.371 -181.266 749.243 -181.173C749.114 -181.079 749.031 -180.937 749.01 -180.779C749.01 -180.779 749.01 -180.779 749.01 -180.779C746.545 -162.122 743.679 -144.281 740.303 -126.536C703.534 128.384 495.816 346.982 232.55 371.976C159.153 381.87 83.9803 381.463 9.95769 370.834C-8.42482 368.169 -27.2035 364.727 -45.1242 360.623Z" fill="#CCDBFF"/>
<path d="M-34.0224 375.626C-34.1813 375.589 -34.3465 375.615 -34.4817 375.699C-34.617 375.783 -34.7113 375.917 -34.7439 376.072C-34.7765 376.228 -34.7447 376.392 -34.6557 376.528C-34.5666 376.665 -34.4275 376.763 -34.2691 376.802C-34.2691 376.802 -34.2691 376.802 -34.2691 376.802C-16.3661 381.176 2.4213 384.866 20.828 387.751C94.9493 399.262 170.484 400.117 244.205 390.176C508.728 365.202 717.432 144.257 752.869 -111.217C756.167 -129.008 758.95 -146.889 761.328 -165.582C761.348 -165.741 761.303 -165.903 761.204 -166.033C761.104 -166.163 760.958 -166.25 760.797 -166.276C760.636 -166.301 760.473 -166.263 760.345 -166.169C760.216 -166.076 760.132 -165.934 760.112 -165.776C760.112 -165.776 760.112 -165.776 760.112 -165.776C757.647 -147.119 754.78 -129.278 751.404 -111.533C714.635 143.387 506.918 361.985 243.651 386.979C170.254 396.873 95.0821 396.466 21.0595 385.837C2.67699 383.172 -16.1017 379.73 -34.0224 375.626Z" fill="#CCDBFF"/>
<path d="M-61.777 349.37C-61.9359 349.334 -62.1011 349.36 -62.2364 349.444C-62.3717 349.527 -62.466 349.662 -62.4985 349.817C-62.5311 349.972 -62.4994 350.136 -62.4103 350.273C-62.3212 350.41 -62.1821 350.508 -62.0237 350.547C-62.0237 350.547 -62.0237 350.547 -62.0237 350.547C-44.1207 354.921 -25.3333 358.611 -6.92669 361.495C67.1947 373.007 142.729 373.861 216.45 363.921C480.974 338.947 689.678 118.002 725.114 -137.473C728.412 -155.263 731.195 -173.144 733.573 -191.838C733.593 -191.996 733.549 -192.158 733.449 -192.288C733.35 -192.418 733.203 -192.506 733.042 -192.531C732.881 -192.557 732.719 -192.519 732.59 -192.425C732.462 -192.331 732.378 -192.19 732.357 -192.031C732.357 -192.031 732.357 -192.031 732.357 -192.031C729.892 -173.374 727.026 -155.533 723.65 -137.788C686.881 117.132 479.163 335.729 215.897 360.724C142.5 370.618 67.3274 370.21 -6.69514 359.582C-25.0777 356.917 -43.8564 353.474 -61.777 349.37Z" fill="#CCDBFF"/>
<path d="M-79.8176 340.618C-79.9765 340.582 -80.1416 340.608 -80.2769 340.692C-80.4122 340.776 -80.5065 340.91 -80.5391 341.065C-80.5717 341.221 -80.5399 341.385 -80.4508 341.521C-80.3618 341.658 -80.2226 341.756 -80.0642 341.795C-80.0642 341.795 -80.0642 341.795 -80.0642 341.795C-62.1613 346.169 -43.3739 349.859 -24.9672 352.744C49.1542 364.255 124.688 365.109 198.41 355.169C462.933 330.195 671.637 109.25 707.074 -146.224C710.371 -164.015 713.155 -181.896 715.532 -200.589C715.552 -200.748 715.508 -200.91 715.409 -201.04C715.309 -201.17 715.163 -201.257 715.002 -201.283C714.841 -201.309 714.678 -201.27 714.55 -201.177C714.421 -201.083 714.337 -200.941 714.316 -200.783C714.316 -200.783 714.316 -200.783 714.316 -200.783C711.851 -182.126 708.985 -164.285 705.609 -146.54C668.84 108.38 461.123 326.978 197.856 351.972C124.459 361.866 49.2869 361.459 -24.7357 350.83C-43.1182 348.165 -61.8969 344.723 -79.8176 340.618Z" fill="#CCDBFF"/>
<rect x="525.499" y="70.5" width="1062" height="478" stroke="#FAC402" stroke-width="15"/>
</g>
<defs>
<clipPath id="clip0_91_979">
<rect width="1729" height="610" fill="white"/>
</clipPath>
</defs>
</svg>
