<svg width="1728" height="624" viewBox="0 0 1728 624" fill="none" xmlns="http://www.w3.org/2000/svg">
<g clip-path="url(#clip0_91_1060)">
<path d="M-64.1243 368.309C-64.2832 368.273 -64.4484 368.299 -64.5836 368.382C-64.7189 368.466 -64.8132 368.6 -64.8458 368.756C-64.8784 368.911 -64.8466 369.075 -64.7576 369.212C-64.6685 369.349 -64.5294 369.447 -64.371 369.485C-64.371 369.485 -64.371 369.485 -64.371 369.485C-46.468 373.86 -27.6806 377.549 -9.27395 380.434C64.8474 391.946 140.382 392.8 214.103 382.86C478.626 357.886 687.331 136.941 722.767 -118.534C726.065 -136.324 728.848 -154.206 731.226 -172.899C731.246 -173.057 731.201 -173.219 731.102 -173.349C731.002 -173.479 730.856 -173.567 730.695 -173.592C730.534 -173.618 730.371 -173.58 730.243 -173.486C730.114 -173.392 730.031 -173.251 730.01 -173.093C730.01 -173.093 730.01 -173.093 730.01 -173.093C727.545 -154.435 724.678 -136.594 721.303 -118.85C684.533 136.07 476.816 354.668 213.549 379.662C140.152 389.557 64.9802 389.149 -9.0424 378.52C-27.4249 375.856 -46.2036 372.413 -64.1243 368.309Z" fill="#CCDBFF"/>
<path d="M-53.0225 383.312C-53.1814 383.276 -53.3465 383.302 -53.4818 383.386C-53.6171 383.469 -53.7114 383.603 -53.744 383.759C-53.7766 383.914 -53.7448 384.078 -53.6557 384.215C-53.5667 384.352 -53.4275 384.45 -53.2691 384.488C-53.2691 384.488 -53.2691 384.488 -53.2691 384.488C-35.3662 388.863 -16.5788 392.553 1.82789 395.437C75.9493 406.949 151.483 407.803 225.205 397.863C489.728 372.889 698.432 151.944 733.869 -103.531C737.167 -121.321 739.95 -139.203 742.327 -157.896C742.348 -158.054 742.303 -158.216 742.204 -158.346C742.104 -158.476 741.958 -158.564 741.797 -158.589C741.636 -158.615 741.473 -158.577 741.345 -158.483C741.216 -158.389 741.132 -158.248 741.112 -158.09C741.112 -158.09 741.112 -158.09 741.112 -158.09C738.647 -139.432 735.78 -121.591 732.404 -103.847C695.635 151.073 487.918 369.671 224.651 394.666C151.254 404.56 76.082 404.152 2.05944 393.524C-16.3231 390.859 -35.1018 387.416 -53.0225 383.312Z" fill="#CCDBFF"/>
<path d="M-80.7771 357.057C-80.936 357.02 -81.1011 357.046 -81.2364 357.13C-81.3717 357.214 -81.466 357.348 -81.4986 357.503C-81.5312 357.659 -81.4994 357.823 -81.4103 357.96C-81.3213 358.096 -81.1821 358.194 -81.0237 358.233C-81.0237 358.233 -81.0237 358.233 -81.0237 358.233C-63.1208 362.607 -44.3334 366.297 -25.9267 369.182C48.1947 380.693 123.729 381.548 197.45 371.608C461.974 346.633 670.678 125.688 706.114 -129.786C709.412 -147.577 712.195 -165.458 714.573 -184.151C714.593 -184.31 714.549 -184.471 714.449 -184.601C714.35 -184.732 714.203 -184.819 714.042 -184.845C713.881 -184.87 713.718 -184.832 713.59 -184.738C713.462 -184.645 713.378 -184.503 713.357 -184.345C713.357 -184.345 713.357 -184.345 713.357 -184.345C710.892 -165.688 708.026 -147.847 704.65 -130.102C667.881 124.818 460.163 343.416 196.897 368.41C123.5 378.305 48.3274 377.897 -25.6952 367.268C-44.0777 364.604 -62.8564 361.161 -80.7771 357.057Z" fill="#CCDBFF"/>
<path d="M-98.8176 348.305C-98.9765 348.268 -99.1416 348.295 -99.2769 348.378C-99.4122 348.462 -99.5065 348.596 -99.5391 348.752C-99.5717 348.907 -99.5399 349.071 -99.4508 349.208C-99.3618 349.344 -99.2226 349.442 -99.0642 349.481C-99.0642 349.481 -99.0642 349.481 -99.0642 349.481C-81.1613 353.856 -62.3739 357.545 -43.9672 360.43C30.1542 371.941 105.688 372.796 179.41 362.856C443.933 337.881 652.637 116.936 688.074 -138.538C691.371 -156.329 694.155 -174.21 696.532 -192.903C696.552 -193.061 696.508 -193.223 696.409 -193.353C696.309 -193.483 696.163 -193.571 696.002 -193.597C695.841 -193.622 695.678 -193.584 695.55 -193.49C695.421 -193.397 695.337 -193.255 695.316 -193.097C695.316 -193.097 695.316 -193.097 695.316 -193.097C692.851 -174.439 689.985 -156.599 686.609 -138.854C649.84 116.066 442.123 334.664 178.856 359.658C105.459 369.553 30.2869 369.145 -43.7357 358.516C-62.1182 355.852 -80.8969 352.409 -98.8176 348.305Z" fill="#CCDBFF"/>
<rect x="506.5" y="78.5" width="1030" height="478" stroke="#FAC402" stroke-width="15"/>
</g>
<defs>
<clipPath id="clip0_91_1060">
<rect width="1728" height="624" fill="white"/>
</clipPath>
</defs>
</svg>
