<svg width="1728" height="610" viewBox="0 0 1728 610" fill="none" xmlns="http://www.w3.org/2000/svg">
<g clip-path="url(#clip0_91_1008)">
<path d="M-153.124 360.623C-153.283 360.586 -153.448 360.612 -153.584 360.696C-153.719 360.78 -153.813 360.914 -153.846 361.069C-153.878 361.225 -153.847 361.389 -153.758 361.525C-153.669 361.662 -153.529 361.76 -153.371 361.799C-153.371 361.799 -153.371 361.799 -153.371 361.799C-135.468 366.173 -116.681 369.863 -98.274 372.748C-24.1526 384.259 51.3816 385.113 125.103 375.173C389.626 350.199 598.331 129.254 633.767 -126.22C637.065 -144.011 639.848 -161.892 642.226 -180.585C642.246 -180.744 642.201 -180.906 642.102 -181.036C642.002 -181.166 641.856 -181.253 641.695 -181.279C641.534 -181.304 641.371 -181.266 641.243 -181.173C641.114 -181.079 641.031 -180.937 641.01 -180.779C641.01 -180.779 641.01 -180.779 641.01 -180.779C638.545 -162.122 635.678 -144.281 632.303 -126.536C595.533 128.384 387.816 346.982 124.549 371.976C51.1524 381.87 -24.0199 381.463 -98.0424 370.834C-116.425 368.169 -135.204 364.727 -153.124 360.623Z" fill="#CCDBFF"/>
<path d="M-142.023 375.626C-142.181 375.589 -142.347 375.615 -142.482 375.699C-142.617 375.783 -142.711 375.917 -142.744 376.072C-142.777 376.228 -142.745 376.392 -142.656 376.529C-142.567 376.665 -142.428 376.763 -142.269 376.802C-142.269 376.802 -142.269 376.802 -142.269 376.802C-124.366 381.176 -105.579 384.866 -87.1722 387.751C-13.0508 399.262 62.4834 400.117 136.205 390.176C400.728 365.202 609.432 144.257 644.869 -111.217C648.167 -129.008 650.95 -146.889 653.327 -165.582C653.348 -165.741 653.303 -165.903 653.204 -166.033C653.104 -166.163 652.958 -166.25 652.797 -166.276C652.636 -166.301 652.473 -166.263 652.345 -166.169C652.216 -166.076 652.132 -165.934 652.111 -165.776C652.111 -165.776 652.111 -165.776 652.111 -165.776C649.646 -147.119 646.78 -129.278 643.404 -111.533C606.635 143.387 398.918 361.985 135.651 386.979C62.2542 396.873 -12.918 396.466 -86.9406 385.837C-105.323 383.172 -124.102 379.73 -142.023 375.626Z" fill="#CCDBFF"/>
<path d="M-169.777 349.37C-169.936 349.334 -170.101 349.36 -170.236 349.444C-170.372 349.527 -170.466 349.662 -170.499 349.817C-170.531 349.972 -170.499 350.136 -170.41 350.273C-170.321 350.41 -170.182 350.508 -170.024 350.547C-170.024 350.547 -170.024 350.547 -170.024 350.547C-152.121 354.921 -133.333 358.611 -114.927 361.495C-40.8053 373.007 34.7289 373.861 108.45 363.921C372.974 338.947 581.678 118.002 617.114 -137.473C620.412 -155.263 623.195 -173.144 625.573 -191.838C625.593 -191.996 625.549 -192.158 625.449 -192.288C625.35 -192.418 625.203 -192.506 625.042 -192.531C624.881 -192.557 624.719 -192.519 624.59 -192.425C624.462 -192.331 624.378 -192.19 624.357 -192.031C624.357 -192.031 624.357 -192.031 624.357 -192.031C621.892 -173.374 619.026 -155.533 615.65 -137.788C578.881 117.132 371.163 335.729 107.897 360.724C34.4997 370.618 -40.6726 370.21 -114.695 359.582C-133.078 356.917 -151.856 353.474 -169.777 349.37Z" fill="#CCDBFF"/>
<path d="M-187.818 340.618C-187.976 340.582 -188.142 340.608 -188.277 340.692C-188.412 340.776 -188.506 340.91 -188.539 341.065C-188.572 341.221 -188.54 341.385 -188.451 341.521C-188.362 341.658 -188.223 341.756 -188.064 341.795C-188.064 341.795 -188.064 341.795 -188.064 341.795C-170.161 346.169 -151.374 349.859 -132.967 352.744C-58.8458 364.255 16.6883 365.109 90.4099 355.169C354.933 330.195 563.637 109.25 599.074 -146.224C602.371 -164.015 605.155 -181.896 607.532 -200.59C607.552 -200.748 607.508 -200.91 607.409 -201.04C607.309 -201.17 607.163 -201.257 607.002 -201.283C606.841 -201.309 606.678 -201.27 606.55 -201.177C606.421 -201.083 606.337 -200.941 606.316 -200.783C606.316 -200.783 606.316 -200.783 606.316 -200.783C603.851 -182.126 600.985 -164.285 597.609 -146.54C560.84 108.38 353.123 326.978 89.8562 351.972C16.4591 361.866 -58.7131 361.458 -132.736 350.83C-151.118 348.165 -169.897 344.723 -187.818 340.618Z" fill="#CCDBFF"/>
<rect x="504.5" y="34.5" width="1062" height="478" stroke="#FAC402" stroke-width="15"/>
</g>
<defs>
<clipPath id="clip0_91_1008">
<rect width="1728" height="610" fill="white"/>
</clipPath>
</defs>
</svg>
