<svg width="1518" height="789" viewBox="0 0 1518 789" fill="none" xmlns="http://www.w3.org/2000/svg">
<g clip-path="url(#clip0_74_468)">
<path d="M1356.41 -22.1377C1356.17 -22.1715 1355.92 -22.2054 1355.67 -22.2393C1354.3 -12.8312 1353.33 -3.03044 1352.78 6.59715C1350.61 45.2627 1354.29 84.355 1364.15 121.887C1392.91 259.67 1536.82 343.228 1671.55 335.972C1680.97 335.961 1690.63 335.703 1700.56 335.186C1700.55 334.936 1700.54 334.687 1700.52 334.437C1690.6 334.898 1680.95 335.102 1671.55 335.06C1536.91 341.434 1394.74 258.251 1366.09 121.377C1356.28 84.0615 1352.35 45.2237 1353.98 6.65801C1354.4 -2.9448 1355.21 -12.7298 1356.41 -22.1377Z" fill="#CCDBFF"/>
<path d="M1423.21 -103.04C1422.99 -103.15 1422.76 -103.26 1422.54 -103.369C1418.29 -94.864 1414.3 -85.8577 1410.76 -76.8875C1396.6 -40.8451 1387.85 -2.56709 1385.47 36.1668C1369.64 176.026 1480.16 300.439 1610.39 335.727C1619.33 338.665 1628.59 341.445 1638.19 344.064C1638.25 343.823 1638.32 343.582 1638.39 343.341C1628.82 340.672 1619.59 337.845 1610.67 334.862C1480.81 298.764 1371.83 175.252 1387.47 36.2875C1389.83 -2.22208 1398.26 -40.3378 1411.88 -76.4545C1415.29 -85.4433 1419.12 -94.4824 1423.21 -103.04Z" fill="#CCDBFF"/>
<path d="M1501.98 -136.288C1501.79 -136.447 1501.6 -136.607 1501.4 -136.767C1495.27 -129.507 1489.27 -121.698 1483.71 -113.819C1461.42 -82.1468 1443.87 -47.0216 1432.4 -9.94862C1383.96 122.204 1461.94 269.219 1580.13 334.292C1588.13 339.262 1596.46 344.151 1605.17 348.965C1605.29 348.746 1605.41 348.528 1605.53 348.309C1596.87 343.453 1588.57 338.525 1580.61 333.519C1462.96 267.744 1386.27 121.969 1434.31 -9.35946C1445.72 -46.2174 1462.92 -81.2607 1484.69 -113.133C1490.12 -121.063 1495.99 -128.939 1501.98 -136.288Z" fill="#CCDBFF"/>
<path d="M1574.35 -148.755C1574.19 -148.949 1574.03 -149.143 1573.88 -149.336C1566.46 -143.391 1559.07 -136.879 1552.1 -130.215C1524.15 -103.412 1500.18 -72.3108 1481.8 -38.1308C1408.88 82.2595 1457.17 241.513 1560.67 328.072C1567.56 334.486 1574.81 340.885 1582.43 347.281C1582.59 347.09 1582.75 346.899 1582.91 346.708C1575.34 340.277 1568.14 333.848 1561.29 327.406C1458.46 240.262 1411.19 82.4712 1483.56 -37.1855C1501.84 -71.167 1525.44 -102.255 1552.93 -129.353C1559.79 -136.091 1567.05 -142.695 1574.35 -148.755Z" fill="#CCDBFF"/>
<path d="M143.179 858.798C143.424 858.849 143.669 858.901 143.914 858.952C145.945 849.664 147.596 839.955 148.826 830.39C153.712 791.973 152.796 752.719 145.597 714.586C126.61 575.121 -11.0681 481.642 -145.97 479.399C-155.365 478.746 -165.02 478.324 -174.966 478.14C-174.972 478.39 -174.977 478.64 -174.982 478.89C-165.05 479.129 -155.411 479.604 -146.035 480.307C-11.2833 483.425 124.682 576.408 143.632 714.959C150.788 752.872 151.975 791.89 147.635 830.245C146.541 839.795 145.043 849.498 143.179 858.798Z" fill="#CCDBFF"/>
<path d="M161.83 833.034C162.08 833.022 162.329 833.01 162.579 832.998C162.202 823.498 161.35 813.687 160.127 804.121C155.164 765.714 144.374 727.961 127.788 692.877C74.2312 562.713 -82.5766 506.99 -213.681 538.852C-222.937 540.591 -232.386 542.618 -242.057 544.95C-241.999 545.193 -241.941 545.436 -241.883 545.679C-232.212 543.405 -222.765 541.433 -213.515 539.748C-82.335 508.77 72.6901 564.444 125.981 693.733C142.47 728.615 153.462 766.071 158.938 804.281C160.289 813.798 161.287 823.565 161.83 833.034Z" fill="#CCDBFF"/>
<path d="M153.916 794.745C154.154 794.671 154.393 794.597 154.632 794.523C151.901 785.416 148.634 776.126 145.068 767.166C130.699 731.204 110.849 697.326 86.0507 667.476C1.77355 554.745 -163.97 539.817 -283.013 603.317C-291.544 607.305 -300.192 611.621 -308.978 616.287C-308.861 616.508 -308.744 616.729 -308.628 616.95C-299.827 612.339 -291.168 608.078 -282.629 604.143C-163.293 541.481 0.712002 556.805 84.5136 668.756C109.168 698.433 129.139 731.974 143.956 767.617C147.634 776.497 151.032 785.709 153.916 794.745Z" fill="#CCDBFF"/>
</g>
<defs>
<clipPath id="clip0_74_468">
<rect width="1518" height="789" fill="white"/>
</clipPath>
</defs>
</svg>
